<svg width="339.848022" height="290.221924" viewBox="0 0 339.848 290.222" fill="none" xmlns="http://www.w3.org/2000/svg" xmlns:xlink="http://www.w3.org/1999/xlink">
	<desc>
			Created with Pixso.
	</desc>
	<defs/>
	<g opacity="0.103068">
		<path id="Path" d="M92.89 10.36C103.09 1.28 119.12 -0.59 133.7 0.14C179.51 2.41 220.86 24.53 256.63 49.54C269.55 58.6 282.32 68.36 290.73 80.83C307.85 106.21 302.76 141.38 278.97 162.29C270.88 169.41 261.06 174.87 250.99 179.7C233.08 188.3 213.75 195.2 193.42 197.17C178.92 198.57 164.25 197.43 149.83 195.48C109.57 190.01 70.04 177.93 36.91 157.27C22.39 148.21 8.69 136.95 2.7 122.29C-3.29 107.63 0.55 89.05 15.38 80.37C21.52 76.78 28.85 75.17 36.04 73.64C46.61 71.4 57.35 69.19 66.89 64.64C76.75 59.94 88.41 50.84 86.46 40.43C84.37 29.26 82.69 19.45 92.89 10.36Z" fill="#ABA3CF" fill-opacity="1.000000" fill-rule="evenodd"/>
	</g>
	<path id="Path" d="M134.83 97.62L134.83 138.7C134.83 143.59 136.77 148.27 140.22 151.72C143.67 155.17 148.35 157.11 153.23 157.1L177.76 157.1C182.15 157.11 186.36 155.36 189.46 152.26C192.56 149.16 194.3 144.95 194.29 140.56L194.29 97.62C194.29 81.2 180.98 67.89 164.56 67.89C148.14 67.89 134.83 81.2 134.83 97.62L134.83 97.62Z" fill="#65617D" fill-opacity="1.000000" fill-rule="evenodd"/>
	<g opacity="0.100000">
		<path id="Path" d="M134.83 97.62L134.83 138.7C134.83 143.59 136.77 148.27 140.22 151.72C143.67 155.17 148.35 157.11 153.23 157.1L177.76 157.1C182.15 157.11 186.36 155.36 189.46 152.26C192.56 149.16 194.3 144.95 194.29 140.56L194.29 97.62C194.29 81.2 180.98 67.89 164.56 67.89C148.14 67.89 134.83 81.2 134.83 97.62L134.83 97.62Z" fill="#000000" fill-opacity="1.000000" fill-rule="evenodd"/>
	</g>
	<path id="Path" d="M135.71 98.06L135.71 137.92C135.71 142.66 137.59 147.2 140.94 150.55C144.29 153.9 148.83 155.78 153.57 155.77L177.37 155.77C181.62 155.78 185.7 154.09 188.71 151.08C191.72 148.08 193.41 144 193.41 139.74L193.41 98.06C193.41 82.13 180.49 69.22 164.56 69.22C148.63 69.22 135.71 82.13 135.71 98.06L135.71 98.06Z" fill="#65617D" fill-opacity="1.000000" fill-rule="evenodd"/>
	<g opacity="0.100000">
		<path id="Path" d="M142.88 103.95L142.88 137.11C142.86 140.11 143.7 143.05 145.28 145.6C147.71 149.44 151.74 151.95 156.3 151.95L174.19 151.95C178.54 151.95 182.35 149.41 184.46 145.6C185.64 143.46 186.26 141.05 186.24 138.61L186.24 103.95C186.24 90.71 176.54 79.96 164.56 79.96C158.57 79.96 153.15 82.65 149.23 86.99C145.09 91.67 142.82 97.71 142.88 103.95L142.88 103.95Z" fill="#000000" fill-opacity="1.000000" fill-rule="evenodd"/>
	</g>
	<circle id="Oval" cx="202.827759" cy="217.845947" r="3.281192" fill="#333F4F" fill-opacity="1.000000"/>
	<circle id="Oval" cx="196.957275" cy="230.684082" r="3.281192" fill="#333F4F" fill-opacity="1.000000"/>
	<circle id="Oval" cx="138.416382" cy="233.007812" r="3.281192" fill="#333F4F" fill-opacity="1.000000"/>
	<circle id="Oval" cx="125.337036" cy="216.259521" r="3.281192" fill="#333F4F" fill-opacity="1.000000"/>
	<rect id="Rectangle" x="162.359680" y="159.899170" width="4.109353" height="25.672970" fill="#333F4F" fill-opacity="1.000000"/>
	<g opacity="0.100000">
		<rect id="Rectangle" x="162.359680" y="181.417236" width="4.109353" height="4.158273" fill="#333F4F" fill-opacity="1.000000"/>
	</g>
	<rect id="Rectangle" x="167.262207" y="210.878174" width="5.695786" height="28.485920" transform="rotate(180 167.262207 210.878174)" fill="#333F4F" fill-opacity="1.000000"/>
	<path id="Path" d="M126.05 210.69L163.33 209.16L163.33 215.15L120.06 215.15C120.94 212.57 123.32 210.8 126.05 210.69L126.05 210.69Z" fill="#333F4F" fill-opacity="1.000000" fill-rule="evenodd"/>
	<path id="Path" d="M200.63 210.69L163.33 209.16L163.33 215.15L206.61 215.15C205.73 212.57 203.35 210.8 200.63 210.69L200.63 210.69Z" fill="#333F4F" fill-opacity="1.000000" fill-rule="evenodd"/>
	<path id="Path" d="M167.26 209.77L197.03 224.45C199.6 225.72 201.23 228.34 201.22 231.21L201.22 231.65L166.45 216.5L161.56 216.15L132.65 234.61L132.65 234.61C132.28 231.83 133.47 229.07 135.76 227.45L161.56 209.18L167.26 209.77Z" fill="#333F4F" fill-opacity="1.000000" fill-rule="evenodd"/>
	<g opacity="0.100000">
		<path id="Path" d="M162.36 159.89L162.36 162.66C163.07 162.69 163.81 162.7 164.56 162.7C165.2 162.7 165.84 162.7 166.46 162.67L166.46 159.89L162.36 159.89Z" fill="#333F4F" fill-opacity="1.000000" fill-rule="evenodd"/>
	</g>
	<ellipse id="Oval" cx="164.561096" cy="157.299316" rx="15.161973" ry="4.434327" fill="#333F4F" fill-opacity="1.000000"/>
	<path id="Path" d="M149.53 157.29C149.56 157.79 149.79 158.25 150.17 158.57C150.32 158.72 150.49 158.85 150.66 158.97C152.91 160.59 158.34 161.73 164.69 161.73C171.03 161.73 176.5 160.58 178.75 158.95C178.86 158.87 178.97 158.79 179.07 158.7C179.52 158.37 179.81 157.86 179.85 157.3C179.85 154.85 173.07 152.86 164.69 152.86C156.31 152.86 149.53 154.84 149.53 157.29Z" fill="#333F4F" fill-opacity="1.000000" fill-rule="evenodd"/>
	<g opacity="0.100000">
		<path id="Path" d="M149.53 157.29C149.56 157.79 149.79 158.25 150.17 158.57C150.32 158.72 150.49 158.85 150.66 158.97C152.91 160.59 158.34 161.73 164.69 161.73C171.03 161.73 176.5 160.58 178.75 158.95C178.86 158.87 178.97 158.79 179.07 158.7C179.52 158.37 179.81 157.86 179.85 157.3C179.85 154.85 173.07 152.86 164.69 152.86C156.31 152.86 149.53 154.84 149.53 157.29Z" fill="#333F4F" fill-opacity="1.000000" fill-rule="evenodd"/>
	</g>
	<g opacity="0.100000">
		<path id="Path" d="M149.4 157.29C149.43 157.79 149.66 158.25 150.04 158.57C151.98 158.09 153.31 157.69 153.31 157.69C153.31 157.69 166.67 158.44 178.94 158.7C179.4 158.37 179.68 157.86 179.72 157.3C179.72 154.85 172.94 152.86 164.56 152.86C156.18 152.86 149.4 154.84 149.4 157.29Z" fill="#333F4F" fill-opacity="1.000000" fill-rule="evenodd"/>
	</g>
	<g opacity="0.100000">
		<path id="Path" d="M138.92 148.13C142.25 152.92 147.72 155.78 153.57 155.77L177.37 155.77C182.95 155.78 188.12 152.88 191.04 148.13L138.92 148.13Z" fill="#333F4F" fill-opacity="1.000000" fill-rule="evenodd"/>
	</g>
	<g opacity="0.100000">
		<path id="Path" d="M149.53 157.29C149.56 157.79 149.79 158.25 150.17 158.57C150.32 158.72 150.49 158.85 150.66 158.97C160.01 159.54 169.4 159.53 178.75 158.95C178.86 158.87 178.97 158.79 179.07 158.7C179.52 158.37 179.81 157.86 179.85 157.3C179.85 154.85 173.07 152.86 164.69 152.86C156.31 152.86 149.53 154.84 149.53 157.29Z" fill="#333F4F" fill-opacity="1.000000" fill-rule="evenodd"/>
	</g>
	<path id="Path" d="M135.9 156.89C155.02 159.3 174.36 159.3 193.48 156.89C194.55 156.89 195.58 156.47 196.34 155.71C197.1 154.96 197.53 153.93 197.53 152.86L197.53 152.86C197.53 150.63 195.72 148.83 193.5 148.83L135.9 148.83C133.67 148.83 131.87 150.63 131.87 152.86L131.87 152.86C131.87 155.08 133.67 156.89 135.9 156.89L135.9 156.89Z" fill="#333F4F" fill-opacity="1.000000" fill-rule="evenodd"/>
	<path id="Path" d="M188.97 200.77C188.97 200.77 192.94 204.84 195.65 205.22C198.36 205.61 200.59 214.33 196.82 215.01C193.04 215.69 185.77 212.97 184.7 211.81C183.64 210.65 179.76 203.77 179.76 203.77L188.97 200.77Z" fill="#65617D" fill-opacity="1.000000" fill-rule="evenodd"/>
	<path id="Path" d="M167.07 157.36C167.07 157.36 176.76 175.87 176.95 178.39C177.15 180.91 185.38 191.58 185.38 191.58L175.11 204.55C175.11 204.55 173.76 201.25 171.43 200.09C169.11 198.92 169.59 196.31 169.59 196.31C169.59 196.31 167.17 196.31 165.43 193.4C163.68 190.49 161.55 187.59 161.55 186.34C161.55 185.09 148.76 171.9 148.76 171.9L149.73 157.86L152.35 153.4L167.07 157.36Z" fill="#3F3D56" fill-opacity="1.000000" fill-rule="evenodd"/>
	<g opacity="0.100000">
		<path id="Path" d="M192.26 158.43L192.35 158.5C193.52 159.55 206.7 171.23 206.7 171.51C206.7 171.78 211.44 179.64 205.53 186.43C199.63 193.21 186.06 204.35 186.06 204.35C186.06 204.35 180.15 208.61 179.38 209.49C178.6 210.36 166.88 209.49 173.86 201.54C180.83 193.59 187.42 184.68 187.42 184.68C187.42 184.68 175.79 181.89 175.02 179.94C174.25 177.99 190.32 153.78 190.32 153.78L192.26 158.43Z" fill="#000000" fill-opacity="1.000000" fill-rule="evenodd"/>
	</g>
	<path id="Path" d="M192.65 158.43L192.74 158.5C193.91 159.55 207.09 171.23 207.09 171.51C207.09 171.78 211.83 179.64 205.92 186.43C200.01 193.21 186.45 204.35 186.45 204.35C186.45 204.35 180.54 208.61 179.76 209.49C178.99 210.36 167.26 209.49 174.24 201.54C181.22 193.59 187.8 184.68 187.8 184.68C187.8 184.68 176.18 181.89 175.4 179.94C174.63 177.99 159.33 154.26 159.33 154.26L190.72 153.78L192.65 158.43Z" fill="#3F3D56" fill-opacity="1.000000" fill-rule="evenodd"/>
	<path id="Path" d="M159.13 106.32L160.29 116.88C160.29 116.88 172.21 121.63 172.5 121.53C172.79 121.43 180.44 114.54 179.18 110C178.55 107.72 178.26 104.55 178.14 101.96C178.01 99.37 178.03 97.4 178.03 97.4C178.03 97.4 160.68 91.2 162.24 95.46C162.8 97.01 162.54 98.87 161.99 100.6C161.3 102.63 160.34 104.55 159.13 106.32Z" fill="#FBBEBE" fill-opacity="1.000000" fill-rule="evenodd"/>
	<g opacity="0.100000">
		<path id="Path" d="M161.98 100.59C162.09 100.71 162.2 100.83 162.31 100.94C166.5 105.38 173.41 105.82 178.13 101.95C178 99.38 178.02 97.39 178.02 97.39C178.02 97.39 160.68 91.18 162.23 95.45C162.79 97 162.54 98.86 161.98 100.59Z" fill="#000000" fill-opacity="1.000000" fill-rule="evenodd"/>
	</g>
	<path id="Path" d="M159.13 92.58C159.13 99 164.34 104.2 170.75 104.2C177.17 104.2 182.37 98.99 182.37 92.58C182.37 86.16 177.17 80.96 170.76 80.95C167.67 80.93 164.7 82.15 162.51 84.34C160.33 86.52 159.11 89.49 159.13 92.58L159.13 92.58Z" fill="#FBBEBE" fill-opacity="1.000000" fill-rule="evenodd"/>
	<g opacity="0.100000">
		<path id="Path" d="M173.47 117.27C173.47 117.27 178.01 107.18 179.57 107.18C181.13 107.18 183.55 159.38 183.55 159.38L159.81 159.75L158.84 132.35L163.68 108.07C163.68 108.07 168.04 117.64 173.47 117.27Z" fill="#000000" fill-opacity="1.000000" fill-rule="evenodd"/>
	</g>
	<g opacity="0.100000">
		<path id="Path" d="M173.47 118.05C173.47 118.05 178.01 107.95 179.57 107.95C181.13 107.95 183.55 160.15 183.55 160.15L156.62 160.56L158.84 133.12L163.69 108.82C163.69 108.82 168.04 118.42 173.47 118.05Z" fill="#000000" fill-opacity="1.000000" fill-rule="evenodd"/>
	</g>
	<path id="Path" d="M173.47 117.66C173.47 117.66 178.01 107.57 179.57 107.57C181.13 107.57 183.55 159.78 183.55 159.78L156.62 160.19L158.84 132.75L163.69 108.45C163.69 108.45 168.04 118.03 173.47 117.66Z" fill="#65617D" fill-opacity="1.000000" fill-rule="evenodd"/>
	<g opacity="0.100000">
		<path id="Path" d="M177.88 104.4C177.88 104.4 178.7 103.21 179.86 103.59C181.03 103.98 181.9 102.92 183.06 103.98C184.22 105.05 188.87 106.5 189.74 106.02C190.62 105.53 193.71 107.66 194.39 108.92C195.08 110.18 197.3 113.57 197.3 113.57C197.3 113.57 199.24 115.9 198.95 117.16C198.66 118.42 199.63 119.87 200.79 120.45C201.95 121.03 204.28 126.84 204.28 126.84C204.28 126.84 203.65 134.62 206.26 135.98C208.88 137.33 206.94 143.24 206.94 143.24L194.58 140.31L191.09 132.37C191.09 132.37 192.44 155.62 194.09 157.75C195.74 159.88 195.93 161.24 195.93 161.24C195.93 161.24 189.54 162.6 188.18 163.76C186.83 164.92 183.24 163.47 183.24 163.47L179.75 132.57C179.75 132.57 178.49 126.75 178.49 123.75C178.49 120.75 177.88 104.4 177.88 104.4Z" fill="#000000" fill-opacity="1.000000" fill-rule="evenodd"/>
	</g>
	<path id="Path" d="M178.27 104.4C178.27 104.4 179.09 103.21 180.25 103.59C181.41 103.98 182.28 102.92 183.45 103.98C184.61 105.05 189.26 106.5 190.13 106.02C191.01 105.53 194.1 107.66 194.78 108.92C195.46 110.18 197.69 113.57 197.69 113.57C197.69 113.57 199.63 115.9 199.34 117.16C199.05 118.42 200.01 119.87 201.17 120.45C202.33 121.03 204.67 126.84 204.67 126.84C204.67 126.84 204.04 134.62 206.66 135.98C207.31 136.33 207.68 137.07 207.87 138.01C208.62 141.81 205.51 145.28 201.64 145.16L195 142.41L191.51 132.37C191.51 132.37 192.86 155.62 194.51 157.75C196.15 159.88 196.35 161.24 196.35 161.24C196.35 161.24 189.95 162.6 188.6 163.76C187.24 164.92 183.66 163.47 183.66 163.47L180.16 132.57C180.16 132.57 178.9 126.75 178.9 123.75C178.9 120.75 178.27 104.4 178.27 104.4Z" fill="#FB8F66" fill-opacity="1.000000" fill-rule="evenodd"/>
	<g opacity="0.100000">
		<path id="Path" d="M199.62 121.23C199.62 121.23 198.46 124.42 195.26 124.13C192.06 123.84 199.62 121.23 199.62 121.23Z" fill="#000000" fill-opacity="1.000000" fill-rule="evenodd"/>
	</g>
	<g opacity="0.100000">
		<path id="Path" d="M196.53 116.38C196.53 116.38 194.39 116.77 193.62 118.61C192.84 120.45 196.53 116.38 196.53 116.38Z" fill="#000000" fill-opacity="1.000000" fill-rule="evenodd"/>
	</g>
	<g opacity="0.100000">
		<path id="Path" d="M190.54 113.09C190.54 113.48 189.18 120.26 190.54 123.07C191.9 125.88 191.7 129.17 191.7 129.17L190.54 113.09Z" fill="#000000" fill-opacity="1.000000" fill-rule="evenodd"/>
	</g>
	<g opacity="0.100000">
		<path id="Path" d="M161.92 102.06C161.92 102.06 161.16 101.17 160.39 101.27C159.61 101.37 159.13 101.85 158.16 102.24C157.19 102.63 154.87 102.72 154.87 103.01C154.87 103.3 152.83 104.47 151.47 104.76C150.12 105.05 145.85 107.96 144.79 113.58C143.72 119.2 141.88 120.84 141.88 120.84L152.15 125.89C152.15 125.89 144.21 159.6 143.24 162.02C142.27 164.44 142.19 178.8 142.19 178.8C142.19 178.8 148.48 181.59 150.14 182.47C151.79 183.36 151.1 174.14 154.5 168.82C157.89 163.49 161.76 155.74 161.76 155.74L167.65 139.17C167.65 139.17 171.43 117.08 168.24 113.01C165.04 108.94 161.63 103.52 161.92 102.06Z" fill="#000000" fill-opacity="1.000000" fill-rule="evenodd"/>
	</g>
	<path id="Path" d="M161.53 102.06C161.53 102.06 160.78 101.17 160 101.27C159.22 101.37 158.74 101.85 157.77 102.24C156.8 102.63 154.48 102.72 154.48 103.01C154.48 103.3 152.45 104.47 151.09 104.76C149.73 105.05 145.46 107.95 144.41 113.57C143.36 119.19 141.51 120.84 141.51 120.84L151.75 125.89C151.75 125.89 143.81 159.6 142.84 162.02C141.87 164.44 141.79 178.8 141.79 178.8C141.79 178.8 148.08 181.59 149.73 182.47C151.39 183.36 150.7 174.11 154.09 168.79C157.48 163.48 161.36 155.72 161.36 155.72L167.26 139.17C167.26 139.17 171.05 117.08 167.85 113.01C164.65 108.94 161.24 103.52 161.53 102.06Z" fill="#FB8F66" fill-opacity="1.000000" fill-rule="evenodd"/>
	<g opacity="0.100000">
		<path id="Path" d="M140.53 144.48C140.81 144.52 141.18 144.57 141.6 144.61C144.71 144.89 150.8 144.96 150.8 144.96C150.8 144.96 155.34 135.94 159.22 136.22C159.22 136.22 155.64 132.15 154.19 132.64C153.94 132.72 153.79 132.54 153.72 132.19C153.33 130.44 154.67 124.5 154.67 124.5L156.51 116.47L145.85 119.08C144.89 119.28 141.88 120.83 141.88 120.83C141.88 120.83 141.79 124.99 141.01 125.96C140.24 126.94 139.37 131.58 139.46 132.74C139.55 133.9 138.39 139.33 139.56 140.78C140.72 142.23 138.12 144.09 140.53 144.48Z" fill="#000000" fill-opacity="1.000000" fill-rule="evenodd"/>
	</g>
	<path id="Path" d="M180.34 207.93C180.34 207.93 180.93 211.13 180.25 213.18C179.57 215.22 179.67 219.67 180.15 221.21C180.64 222.76 182.28 224.89 177.83 225.86C173.37 226.83 170.37 225.96 170.17 225.18C169.98 224.41 169.01 221.31 169.78 219.56C170.56 217.82 170.83 213.27 169.4 210.65C167.96 208.03 168.91 203.97 170.27 203.48C171.63 203 173.95 201.93 173.95 201.93C173.95 201.93 171.43 206.47 173.76 207.46C176.08 208.44 180.34 207.93 180.34 207.93Z" fill="#65617D" fill-opacity="1.000000" fill-rule="evenodd"/>
	<g opacity="0.100000">
		<path id="Path" d="M159.13 92.58C159.12 95.55 160.26 98.41 162.31 100.56C162.32 100.54 162.33 100.52 162.33 100.5C162.68 99.77 163.01 99 162.98 98.19C162.95 97.22 162.39 96.34 162.2 95.37C161.98 94.16 162.38 92.93 162.77 91.75C163.05 90.89 163.61 89.84 164.51 89.95C164.69 89.99 164.87 90.01 165.05 90.01C165.53 89.94 165.63 89.31 165.68 88.83C165.98 86.5 167.75 84.64 170.06 84.23C170.32 84.17 170.58 84.19 170.83 84.28C171.17 84.43 171.35 84.8 171.65 85.01C172.63 85.69 173.88 84.38 175.08 84.49C176.09 84.57 176.71 85.61 177.13 86.54C177.55 87.47 178.07 88.53 179.07 88.74C179.23 88.79 179.4 88.77 179.54 88.69C179.85 88.46 179.63 87.99 179.48 87.64C179.07 86.72 179.34 85.99 179.83 85.33C176.75 81.47 171.56 79.98 166.9 81.62C162.24 83.25 159.12 87.65 159.12 92.59L159.13 92.58Z" fill="#000000" fill-opacity="1.000000" fill-rule="evenodd"/>
	</g>
	<path id="Path" d="M179.47 87.25C179.63 87.6 179.84 88.08 179.53 88.29C179.39 88.38 179.22 88.4 179.06 88.35C178.07 88.13 177.54 87.07 177.12 86.14C176.7 85.21 176.07 84.17 175.07 84.09C173.88 83.99 172.63 85.29 171.64 84.61C171.34 84.4 171.15 84.04 170.82 83.89C170.57 83.8 170.31 83.78 170.05 83.84C167.75 84.25 165.97 86.11 165.67 88.43C165.62 88.91 165.52 89.54 165.04 89.62C164.86 89.62 164.68 89.6 164.51 89.55C163.61 89.45 163.05 90.49 162.76 91.35C162.37 92.53 161.97 93.76 162.2 94.98C162.38 95.94 162.94 96.82 162.97 97.8C163 98.61 162.66 99.38 162.33 100.11C162 100.84 161.45 101.7 160.65 101.6C159.99 101.51 159.63 100.82 159.32 100.24C159 99.65 158.44 99.03 157.8 99.21C157.52 99.3 157.22 99.54 156.96 99.39C156.83 99.29 156.74 99.14 156.72 98.97C156.41 97.61 156.86 96.09 156.19 94.87C155.69 93.93 154.66 93.42 153.83 92.75C152.39 91.6 151.48 89.92 151.31 88.09C151.13 86.26 151.71 84.43 152.91 83.04C153.8 81.99 155.09 81.07 155.16 79.69C155.21 78.64 154.51 77.68 154.5 76.63C154.49 75.59 155.15 74.71 155.9 74.01C158.09 72.01 161.12 71.21 164.01 71.87C164.76 72.05 165.52 72.33 166.28 72.24C167.17 72.13 167.91 71.54 168.73 71.13C171.48 69.84 174.76 70.72 176.49 73.22C177.41 74.65 177.77 76.52 179.14 77.52C180.03 78.18 181.33 78.42 181.82 79.42C182.12 80.02 182.04 80.73 181.94 81.39C181.8 82.48 181.28 83.48 180.47 84.21C179.63 85.08 178.91 85.99 179.47 87.25Z" fill="#512E4E" fill-opacity="1.000000" fill-rule="evenodd"/>
	<g opacity="0.100000">
		<path id="Path" d="M154.74 77.83C154.65 77.56 154.59 77.29 154.54 77.02C154.63 77.28 154.7 77.55 154.74 77.83Z" fill="#000000" fill-opacity="1.000000" fill-rule="evenodd"/>
		<path id="Path" d="M179.27 86.4C179.23 86.22 179.16 86.05 179.08 85.88C178.52 84.62 179.24 83.72 180.07 82.87C180.88 82.13 181.41 81.13 181.55 80.05C181.59 79.75 181.62 79.45 181.63 79.15C181.7 79.24 181.76 79.33 181.81 79.43C182.11 80.03 182.02 80.74 181.93 81.4C181.79 82.49 181.27 83.49 180.46 84.23C179.82 84.88 179.26 85.56 179.27 86.4Z" fill="#000000" fill-opacity="1.000000" fill-rule="evenodd"/>
		<path id="Path" d="M157.42 97.86C158.06 97.68 158.62 98.31 158.94 98.89C159.25 99.47 159.61 100.17 160.27 100.25C161.07 100.35 161.61 99.49 161.95 98.76C162.28 98.03 162.62 97.26 162.59 96.45C162.59 96.36 162.58 96.26 162.56 96.16C162.79 96.69 162.93 97.24 162.98 97.81C163 98.61 162.67 99.38 162.33 100.12C162 100.85 161.45 101.71 160.66 101.61C160 101.52 159.64 100.83 159.33 100.24C159.01 99.66 158.44 99.04 157.81 99.22C157.52 99.3 157.23 99.54 156.97 99.4C156.83 99.3 156.75 99.14 156.73 98.97C156.66 98.67 156.62 98.36 156.61 98.05C156.86 98.16 157.15 97.93 157.42 97.86Z" fill="#000000" fill-opacity="1.000000" fill-rule="evenodd"/>
		<path id="Path" d="M153.44 91.4C154.28 92.07 155.31 92.58 155.82 93.52C156.02 93.93 156.14 94.37 156.17 94.83C155.65 93.92 154.65 93.41 153.83 92.76C152.54 91.72 151.67 90.25 151.38 88.62C151.82 89.71 152.53 90.67 153.44 91.4Z" fill="#000000" fill-opacity="1.000000" fill-rule="evenodd"/>
		<path id="Path" d="M162.18 94.83C162.03 94.44 161.91 94.04 161.82 93.63C161.59 92.41 161.99 91.18 162.38 90C162.67 89.14 163.22 88.1 164.13 88.2C164.3 88.25 164.48 88.27 164.66 88.27C165.14 88.19 165.24 87.57 165.29 87.08C165.59 84.76 167.37 82.9 169.67 82.49C169.93 82.43 170.19 82.45 170.44 82.54C170.79 82.69 170.96 83.05 171.26 83.26C172.24 83.96 173.5 82.64 174.69 82.74C175.7 82.83 176.33 83.86 176.74 84.79C177.16 85.72 177.69 86.78 178.68 87C178.84 87.05 179.01 87.03 179.15 86.95C179.24 86.88 179.3 86.77 179.3 86.66C179.33 86.86 179.39 87.06 179.48 87.25C179.63 87.6 179.85 88.08 179.54 88.29C179.39 88.38 179.23 88.4 179.07 88.35C178.07 88.13 177.55 87.07 177.13 86.14C176.71 85.21 176.08 84.17 175.08 84.09C173.88 83.99 172.63 85.29 171.65 84.61C171.35 84.4 171.16 84.04 170.83 83.89C170.58 83.8 170.31 83.78 170.06 83.84C167.75 84.25 165.98 86.11 165.68 88.43C165.63 88.91 165.53 89.54 165.05 89.62C164.87 89.62 164.69 89.6 164.51 89.55C163.61 89.45 163.06 90.49 162.77 91.35C162.39 92.48 162.02 93.66 162.18 94.83Z" fill="#000000" fill-opacity="1.000000" fill-rule="evenodd"/>
	</g>
	<g opacity="0.100000">
		<path id="Path" d="M141.62 144.61C144.72 144.89 150.81 144.96 150.81 144.96C150.81 144.96 155.35 135.94 159.24 136.22C159.24 136.22 155.65 132.15 154.2 132.64C153.96 132.72 153.8 132.54 153.73 132.19C149.94 133.35 142.7 136.19 141.99 141.16C141.79 142.52 141.67 143.65 141.62 144.61Z" fill="#000000" fill-opacity="1.000000" fill-rule="evenodd"/>
	</g>
	<path id="Path" d="M141.21 144.61C144.32 144.89 150.41 144.96 150.41 144.96C150.41 144.96 154.95 135.94 158.84 136.22C158.84 136.22 155.25 132.15 153.8 132.64C153.56 132.72 153.41 132.54 153.33 132.19C149.53 133.35 142.3 136.19 141.59 141.16C141.4 142.52 141.28 143.65 141.21 144.61Z" fill="#FB8F66" fill-opacity="1.000000" fill-rule="evenodd"/>
	<g opacity="0.100000">
		<path id="Path" d="M168.43 170.54C168.43 170.54 159.69 168.41 158.35 169.57C157.02 170.73 168.43 170.54 168.43 170.54Z" fill="#000000" fill-opacity="1.000000" fill-rule="evenodd"/>
	</g>
	<g opacity="0.100000">
		<path id="Path" d="M193.42 178.87C193.42 178.87 189.74 181 189.36 182.75C188.97 184.49 193.42 178.87 193.42 178.87Z" fill="#000000" fill-opacity="1.000000" fill-rule="evenodd"/>
	</g>
	<g opacity="0.100000">
		<path id="Path" d="M178.7 218.14C178.7 218.14 173.66 217.36 172.37 218.2C171.08 219.04 178.7 218.14 178.7 218.14Z" fill="#000000" fill-opacity="1.000000" fill-rule="evenodd"/>
	</g>
	<path id="Path" d="M128.36 285.77C128.36 285.77 147.89 284.72 152.65 281.92C157.41 279.13 164.14 279.13 164.18 279.13L241.93 262.17L274.25 254.48L280.02 253.72L260.97 231.93L260.39 231.68L232.32 219.54C232.32 219.54 219.74 220.24 217.25 228.43C217.08 229.01 216.97 229.6 216.91 230.2C216.64 232.76 217.35 235.32 218.89 237.37C219.88 238.73 221.1 240.66 221.49 242.35C221.7 243.31 221.65 244.2 221.14 244.87C220.09 245.91 218.93 246.84 217.68 247.63C210.84 252.17 193.54 259.65 163.31 248.19C163.31 248.19 150.38 235.44 140.59 240.85C130.81 246.27 128.36 285.77 128.36 285.77Z" fill="#E1DEE5" fill-opacity="1.000000" fill-rule="evenodd"/>
	<g opacity="0.100000">
		<path id="Path" d="M221.47 242.37C221.69 243.33 221.64 244.21 221.12 244.88C220.07 245.92 218.92 246.85 217.67 247.64L276.52 252.03L260.39 231.68L232.32 219.54C232.32 219.54 219.74 220.24 217.25 228.43C217.08 229.01 216.97 229.6 216.91 230.2C216.64 232.76 217.35 235.32 218.89 237.37C219.87 238.76 221.09 240.67 221.47 242.37Z" fill="#000000" fill-opacity="1.000000" fill-rule="evenodd"/>
	</g>
	<path id="Path" d="M278.97 162.24L230.75 163.29L230.75 221.01L276.52 252.05L287.53 241.91L285.26 208.37L287.53 177.09L278.97 162.24L278.97 162.24Z" fill="#65617D" fill-opacity="1.000000" fill-rule="evenodd"/>
	<path id="Path" d="M306.4 152.79L250.1 135.46C249.08 135.14 248.01 135.03 246.95 135.11L112.46 144.93C100.95 145.72 89.88 149.62 80.43 156.23C71.72 162.36 63.1 171.79 59.11 186.06C56.23 196.59 56.44 207.72 59.72 218.14L71.58 256.58C71.58 256.58 62.67 173.06 151.6 168.87L306.4 152.79Z" fill="#D9D6DF" fill-opacity="1.000000" fill-rule="evenodd"/>
	<g opacity="0.100000">
		<path id="Path" d="M218.88 237.39C219.87 238.75 221.09 240.67 221.47 242.37C223 240.6 223.32 238.61 221.12 237.02C218.37 235.02 217.45 231.54 217.24 228.45C217.07 229.02 216.95 229.62 216.89 230.21C216.63 232.77 217.34 235.33 218.88 237.39Z" fill="#FFFFFF" fill-opacity="1.000000" fill-rule="evenodd"/>
	</g>
	<path id="Path" d="M77.69 246.79L84.33 269.33L99.36 284.01L118.23 287.85L147.58 282.61L147.58 178.3C147.58 178.3 142.51 174.98 141.99 174.98C141.47 174.98 127.31 177.25 127.31 177.25L95.27 200.24L93.94 201.19L79.62 222.51L77.69 246.79Z" fill="#65617D" fill-opacity="1.000000" fill-rule="evenodd"/>
	<path id="Path" d="M147.58 173.95L147.58 282.62L144.75 283.13L144.75 173.95L147.58 173.95L147.58 173.95Z" fill="#65617D" fill-opacity="1.000000" fill-rule="evenodd"/>
	<g opacity="0.100000">
		<path id="Path" d="M278.97 162.24L230.75 163.29L230.75 221.01L276.52 252.05L287.53 241.91L285.26 208.37L287.53 177.09L278.97 162.24L278.97 162.24Z" fill="#000000" fill-opacity="1.000000" fill-rule="evenodd"/>
	</g>
	<g opacity="0.100000">
		<path id="Path" d="M147.58 173.95L147.58 282.62L144.75 283.13L144.75 173.95L147.58 173.95L147.58 173.95Z" fill="#000000" fill-opacity="1.000000" fill-rule="evenodd"/>
	</g>
	<g opacity="0.100000">
		<path id="Path" d="M94.64 207.49C115.61 190.27 138.92 187.73 147.58 187.42L147.58 178.3C147.58 178.3 142.51 174.98 141.99 174.98C141.47 174.98 127.31 177.25 127.31 177.25L95.27 200.24L94.64 207.49Z" fill="#000000" fill-opacity="1.000000" fill-rule="evenodd"/>
	</g>
	<path id="Path" d="M327.71 198.22C327.71 198.22 325.55 203.94 323.23 210.59C321.18 216.51 319 223.17 318.1 227.22C317.76 228.77 316.88 230.37 315.64 231.93C309.98 239.11 296.94 246.07 294.69 248.54C291.95 251.55 276.52 253.72 276.52 253.72L276.52 161.02L286.83 157.7L299.93 157.7L316.88 165.39L325.62 178.32L327.71 198.22Z" fill="#65617D" fill-opacity="1.000000" fill-rule="evenodd"/>
	<path id="Path" d="M147.91 144C148.58 144.82 169.17 145.01 170.24 144.77L172.17 144.33C172.17 144.33 182.11 149.68 188.95 140.93C189.24 140.56 189.53 140.16 189.81 139.73C196.64 129.32 173.87 136.94 173.87 136.94C173.87 136.94 165.15 136.99 162.92 136.99L162.69 136.99C160.37 136.89 155.75 135.49 155.75 135.49C155.75 135.49 147.23 143.17 147.91 144Z" fill="#FBBEBE" fill-opacity="1.000000" fill-rule="evenodd"/>
	<g opacity="0.100000">
		<path id="Path" d="M177.96 140.86C177.96 140.86 186.68 140.91 188.91 140.93L188.96 140.93C189.25 140.56 189.54 140.16 189.82 139.73C196.65 129.32 173.88 136.94 173.88 136.94C173.88 136.94 165.16 136.99 162.93 136.99L162.7 136.99C162.48 137.27 162.26 137.57 162.05 137.89C155.1 148.21 177.96 140.86 177.96 140.86Z" fill="#000000" fill-opacity="1.000000" fill-rule="evenodd"/>
	</g>
	<path id="Path" d="M196.05 141.81C196.05 141.81 191.13 140.26 188.9 140.23C186.67 140.21 177.95 140.16 177.95 140.16C177.95 140.16 155.1 147.5 162.04 137.17C168.99 126.85 179.73 132.77 179.73 132.77L181.67 132.35C182.74 132.12 203.33 132.54 203.99 133.38C204.65 134.21 196.05 141.81 196.05 141.81Z" fill="#FBBEBE" fill-opacity="1.000000" fill-rule="evenodd"/>
	<path id="Path" d="M206.26 135.98C206.26 135.98 206.12 142.7 201.46 143.08C191.68 143.88 194.17 140.1 194.17 140.1L195.01 132.57L199.62 128.4C199.62 128.4 201.65 129.33 201.91 129.17C202.17 129.02 206.26 135.98 206.26 135.98Z" fill="#FB8F66" fill-opacity="1.000000" fill-rule="evenodd"/>
	<path id="Path" d="M140.14 144.48C140.42 144.52 140.79 144.57 141.21 144.61C144.32 144.89 150.41 144.96 150.41 144.96C150.41 144.96 154.95 135.94 158.84 136.22C158.84 136.22 155.25 132.15 153.8 132.64C153.56 132.72 153.41 132.54 153.33 132.19C152.94 130.44 154.28 124.5 154.28 124.5L156.12 116.47L145.46 119.09C144.49 119.29 141.49 120.84 141.49 120.84C141.49 120.84 141.39 125.01 140.62 125.98C139.84 126.95 138.97 131.6 139.07 132.76C139.16 133.92 138 139.35 139.16 140.79C140.33 142.24 137.72 144.09 140.14 144.48Z" fill="#FB8F66" fill-opacity="1.000000" fill-rule="evenodd"/>
	<g opacity="0.100000">
		<path id="Path" d="M151.09 123.36C151.09 123.36 142.17 124.33 141.79 126.55C141.4 128.78 151.09 123.36 151.09 123.36Z" fill="#000000" fill-opacity="1.000000" fill-rule="evenodd"/>
	</g>
	<g opacity="0.100000">
		<path id="Path" d="M145.76 132.08C145.18 132.27 141.79 133.14 141.11 135.18C140.43 137.22 145.76 132.08 145.76 132.08Z" fill="#000000" fill-opacity="1.000000" fill-rule="evenodd"/>
	</g>
	<g opacity="0.100000">
		<path id="Path" d="M141.62 144.97C144.72 145.25 150.81 145.32 150.81 145.32C150.81 145.32 155.35 136.3 159.24 136.58C159.24 136.58 155.65 132.51 154.2 133C153.96 133.08 153.8 132.9 153.73 132.55C149.94 133.71 142.7 136.55 141.99 141.52C141.79 142.88 141.67 144.01 141.62 144.97Z" fill="#000000" fill-opacity="1.000000" fill-rule="evenodd"/>
	</g>
	<path id="Path" d="M209.26 110.62L209.26 149.39C209.26 150.05 208.91 150.15 208.32 150.47C206.36 151.56 201.51 153.5 195.69 150.43C195.1 150.12 194.73 150.01 194.73 149.33L194.73 110.86C194.73 110.86 202.12 113.85 209.26 110.62Z" fill="#333F4F" fill-opacity="1.000000" fill-rule="evenodd"/>
	<ellipse id="Oval" cx="201.999512" cy="110.604248" rx="7.264748" ry="1.544502" fill="#2D394A" fill-opacity="1.000000"/>
	<ellipse id="Oval" cx="201.999512" cy="110.604248" rx="7.264748" ry="1.544502" stroke="#40868E" stroke-opacity="1.000000" stroke-width="0.906667"/>
	<g opacity="0.800000">
		<circle id="Oval" cx="208.600342" cy="126.727295" r="0.164234" fill="#000000" fill-opacity="1.000000"/>
		<circle id="Oval" cx="207.775635" cy="126.958008" r="0.164234" fill="#000000" fill-opacity="1.000000"/>
		<circle id="Oval" cx="206.751831" cy="127.282959" r="0.164234" fill="#000000" fill-opacity="1.000000"/>
		<circle id="Oval" cx="204.917236" cy="127.677734" r="0.164234" fill="#000000" fill-opacity="1.000000"/>
		<circle id="Oval" cx="202.984863" cy="127.911865" r="0.164234" fill="#000000" fill-opacity="1.000000"/>
		<circle id="Oval" cx="200.986206" cy="128.006348" r="0.164234" fill="#000000" fill-opacity="1.000000"/>
		<circle id="Oval" cx="198.110229" cy="127.611328" r="0.164234" fill="#000000" fill-opacity="1.000000"/>
		<circle id="Oval" cx="199.064209" cy="127.842041" r="0.164234" fill="#000000" fill-opacity="1.000000"/>
		<circle id="Oval" cx="196.335205" cy="127.282959" r="0.164234" fill="#000000" fill-opacity="1.000000"/>
		<circle id="Oval" cx="197.191284" cy="127.447021" r="0.164234" fill="#000000" fill-opacity="1.000000"/>
		<circle id="Oval" cx="195.395142" cy="126.958008" r="0.164234" fill="#000000" fill-opacity="1.000000"/>
		<circle id="Oval" cx="205.815308" cy="127.517090" r="0.164234" fill="#000000" fill-opacity="1.000000"/>
		<circle id="Oval" cx="203.924927" cy="127.842041" r="0.164234" fill="#000000" fill-opacity="1.000000"/>
		<circle id="Oval" cx="201.873657" cy="128.006348" r="0.164234" fill="#000000" fill-opacity="1.000000"/>
		<circle id="Oval" cx="200.004272" cy="128.006348" r="0.164234" fill="#000000" fill-opacity="1.000000"/>
	</g>
	<g opacity="0.800000">
		<circle id="Oval" cx="208.600342" cy="127.527588" r="0.164234" fill="#000000" fill-opacity="1.000000"/>
		<circle id="Oval" cx="207.775635" cy="127.761719" r="0.164234" fill="#000000" fill-opacity="1.000000"/>
		<circle id="Oval" cx="206.751831" cy="128.086670" r="0.164234" fill="#000000" fill-opacity="1.000000"/>
		<circle id="Oval" cx="204.917236" cy="128.481445" r="0.164234" fill="#000000" fill-opacity="1.000000"/>
		<circle id="Oval" cx="202.984863" cy="128.715576" r="0.164234" fill="#000000" fill-opacity="1.000000"/>
		<circle id="Oval" cx="200.986206" cy="128.806396" r="0.164234" fill="#000000" fill-opacity="1.000000"/>
		<circle id="Oval" cx="198.110229" cy="128.411621" r="0.164234" fill="#000000" fill-opacity="1.000000"/>
		<circle id="Oval" cx="199.064209" cy="128.645752" r="0.164234" fill="#000000" fill-opacity="1.000000"/>
		<circle id="Oval" cx="196.335205" cy="128.086670" r="0.164234" fill="#000000" fill-opacity="1.000000"/>
		<circle id="Oval" cx="197.191284" cy="128.250732" r="0.164234" fill="#000000" fill-opacity="1.000000"/>
		<circle id="Oval" cx="195.395142" cy="127.761719" r="0.164234" fill="#000000" fill-opacity="1.000000"/>
		<circle id="Oval" cx="205.815308" cy="128.317139" r="0.164234" fill="#000000" fill-opacity="1.000000"/>
		<circle id="Oval" cx="203.924927" cy="128.645752" r="0.164234" fill="#000000" fill-opacity="1.000000"/>
		<circle id="Oval" cx="201.873657" cy="128.806396" r="0.164234" fill="#000000" fill-opacity="1.000000"/>
		<circle id="Oval" cx="200.004272" cy="128.806396" r="0.164234" fill="#000000" fill-opacity="1.000000"/>
	</g>
	<g opacity="0.800000">
		<circle id="Oval" cx="208.600342" cy="128.331055" r="0.164234" fill="#000000" fill-opacity="1.000000"/>
		<circle id="Oval" cx="207.775635" cy="128.561768" r="0.164234" fill="#000000" fill-opacity="1.000000"/>
		<circle id="Oval" cx="206.751831" cy="128.886719" r="0.164234" fill="#000000" fill-opacity="1.000000"/>
		<circle id="Oval" cx="204.917236" cy="129.281738" r="0.164234" fill="#000000" fill-opacity="1.000000"/>
		<circle id="Oval" cx="202.984863" cy="129.515869" r="0.164234" fill="#000000" fill-opacity="1.000000"/>
		<circle id="Oval" cx="200.986206" cy="129.610107" r="0.164234" fill="#000000" fill-opacity="1.000000"/>
		<circle id="Oval" cx="198.110229" cy="129.215332" r="0.164234" fill="#000000" fill-opacity="1.000000"/>
		<circle id="Oval" cx="199.064209" cy="129.445801" r="0.164234" fill="#000000" fill-opacity="1.000000"/>
		<circle id="Oval" cx="196.335205" cy="128.886719" r="0.164234" fill="#000000" fill-opacity="1.000000"/>
		<circle id="Oval" cx="197.191284" cy="129.051025" r="0.164234" fill="#000000" fill-opacity="1.000000"/>
		<circle id="Oval" cx="195.395142" cy="128.561768" r="0.164234" fill="#000000" fill-opacity="1.000000"/>
		<circle id="Oval" cx="205.815308" cy="129.120850" r="0.164234" fill="#000000" fill-opacity="1.000000"/>
		<circle id="Oval" cx="203.924927" cy="129.445801" r="0.164234" fill="#000000" fill-opacity="1.000000"/>
		<circle id="Oval" cx="201.873657" cy="129.610107" r="0.164234" fill="#000000" fill-opacity="1.000000"/>
		<circle id="Oval" cx="200.004272" cy="129.610107" r="0.164234" fill="#000000" fill-opacity="1.000000"/>
	</g>
	<g opacity="0.800000">
		<circle id="Oval" cx="208.600342" cy="129.134766" r="0.164234" fill="#000000" fill-opacity="1.000000"/>
		<circle id="Oval" cx="207.775635" cy="129.365479" r="0.164234" fill="#000000" fill-opacity="1.000000"/>
		<circle id="Oval" cx="206.751831" cy="129.690430" r="0.164234" fill="#000000" fill-opacity="1.000000"/>
		<circle id="Oval" cx="204.917236" cy="130.085449" r="0.164234" fill="#000000" fill-opacity="1.000000"/>
		<circle id="Oval" cx="202.984863" cy="130.319336" r="0.164234" fill="#000000" fill-opacity="1.000000"/>
		<circle id="Oval" cx="200.986206" cy="130.410400" r="0.164234" fill="#000000" fill-opacity="1.000000"/>
		<circle id="Oval" cx="198.110229" cy="130.015381" r="0.164234" fill="#000000" fill-opacity="1.000000"/>
		<circle id="Oval" cx="199.064209" cy="130.249512" r="0.164234" fill="#000000" fill-opacity="1.000000"/>
		<circle id="Oval" cx="196.335205" cy="129.690430" r="0.164234" fill="#000000" fill-opacity="1.000000"/>
		<circle id="Oval" cx="197.191284" cy="129.854736" r="0.164234" fill="#000000" fill-opacity="1.000000"/>
		<circle id="Oval" cx="195.395142" cy="129.365479" r="0.164234" fill="#000000" fill-opacity="1.000000"/>
		<circle id="Oval" cx="205.815308" cy="129.921143" r="0.164234" fill="#000000" fill-opacity="1.000000"/>
		<circle id="Oval" cx="203.924927" cy="130.249512" r="0.164234" fill="#000000" fill-opacity="1.000000"/>
		<circle id="Oval" cx="201.873657" cy="130.410400" r="0.164234" fill="#000000" fill-opacity="1.000000"/>
		<circle id="Oval" cx="200.004272" cy="130.410400" r="0.164234" fill="#000000" fill-opacity="1.000000"/>
	</g>
	<g opacity="0.800000">
		<circle id="Oval" cx="208.600342" cy="129.935059" r="0.164234" fill="#000000" fill-opacity="1.000000"/>
		<circle id="Oval" cx="207.775635" cy="130.165771" r="0.164234" fill="#000000" fill-opacity="1.000000"/>
		<circle id="Oval" cx="206.751831" cy="130.494141" r="0.164234" fill="#000000" fill-opacity="1.000000"/>
		<circle id="Oval" cx="204.917236" cy="130.889160" r="0.164234" fill="#000000" fill-opacity="1.000000"/>
		<circle id="Oval" cx="202.984863" cy="131.123047" r="0.164234" fill="#000000" fill-opacity="1.000000"/>
		<circle id="Oval" cx="200.986206" cy="131.214111" r="0.164234" fill="#000000" fill-opacity="1.000000"/>
		<circle id="Oval" cx="198.110229" cy="130.819092" r="0.164234" fill="#000000" fill-opacity="1.000000"/>
		<circle id="Oval" cx="199.064209" cy="131.049805" r="0.164234" fill="#000000" fill-opacity="1.000000"/>
		<circle id="Oval" cx="196.335205" cy="130.494141" r="0.164234" fill="#000000" fill-opacity="1.000000"/>
		<circle id="Oval" cx="197.191284" cy="130.654785" r="0.164234" fill="#000000" fill-opacity="1.000000"/>
		<circle id="Oval" cx="195.395142" cy="130.165771" r="0.164234" fill="#000000" fill-opacity="1.000000"/>
		<circle id="Oval" cx="205.815308" cy="130.724854" r="0.164234" fill="#000000" fill-opacity="1.000000"/>
		<circle id="Oval" cx="203.924927" cy="131.049805" r="0.164234" fill="#000000" fill-opacity="1.000000"/>
		<circle id="Oval" cx="201.873657" cy="131.214111" r="0.164234" fill="#000000" fill-opacity="1.000000"/>
		<circle id="Oval" cx="200.004272" cy="131.214111" r="0.164234" fill="#000000" fill-opacity="1.000000"/>
	</g>
	<g opacity="0.800000">
		<circle id="Oval" cx="208.600342" cy="130.738770" r="0.164234" fill="#000000" fill-opacity="1.000000"/>
		<circle id="Oval" cx="207.775635" cy="130.969482" r="0.164234" fill="#000000" fill-opacity="1.000000"/>
		<circle id="Oval" cx="206.751831" cy="131.294434" r="0.164234" fill="#000000" fill-opacity="1.000000"/>
		<circle id="Oval" cx="204.917236" cy="131.689209" r="0.164234" fill="#000000" fill-opacity="1.000000"/>
		<circle id="Oval" cx="202.984863" cy="131.923340" r="0.164234" fill="#000000" fill-opacity="1.000000"/>
		<circle id="Oval" cx="200.986206" cy="132.014160" r="0.164234" fill="#000000" fill-opacity="1.000000"/>
		<circle id="Oval" cx="198.110229" cy="131.619385" r="0.164234" fill="#000000" fill-opacity="1.000000"/>
		<circle id="Oval" cx="199.064209" cy="131.853516" r="0.164234" fill="#000000" fill-opacity="1.000000"/>
		<circle id="Oval" cx="196.335205" cy="131.294434" r="0.164234" fill="#000000" fill-opacity="1.000000"/>
		<circle id="Oval" cx="197.191284" cy="131.458496" r="0.164234" fill="#000000" fill-opacity="1.000000"/>
		<circle id="Oval" cx="195.395142" cy="130.969482" r="0.164234" fill="#000000" fill-opacity="1.000000"/>
		<circle id="Oval" cx="205.815308" cy="131.524902" r="0.164234" fill="#000000" fill-opacity="1.000000"/>
		<circle id="Oval" cx="203.924927" cy="131.853516" r="0.164234" fill="#000000" fill-opacity="1.000000"/>
		<circle id="Oval" cx="201.873657" cy="132.014160" r="0.164234" fill="#000000" fill-opacity="1.000000"/>
		<circle id="Oval" cx="200.004272" cy="132.014160" r="0.164234" fill="#000000" fill-opacity="1.000000"/>
	</g>
	<g opacity="0.800000">
		<circle id="Oval" cx="208.600342" cy="131.539062" r="0.164234" fill="#000000" fill-opacity="1.000000"/>
		<circle id="Oval" cx="207.775635" cy="131.769531" r="0.164234" fill="#000000" fill-opacity="1.000000"/>
		<circle id="Oval" cx="206.751831" cy="132.098145" r="0.164234" fill="#000000" fill-opacity="1.000000"/>
		<circle id="Oval" cx="204.917236" cy="132.492920" r="0.164234" fill="#000000" fill-opacity="1.000000"/>
		<circle id="Oval" cx="202.984863" cy="132.727051" r="0.164234" fill="#000000" fill-opacity="1.000000"/>
		<circle id="Oval" cx="200.986206" cy="132.817871" r="0.164234" fill="#000000" fill-opacity="1.000000"/>
		<circle id="Oval" cx="198.110229" cy="132.423096" r="0.164234" fill="#000000" fill-opacity="1.000000"/>
		<circle id="Oval" cx="199.064209" cy="132.653809" r="0.164234" fill="#000000" fill-opacity="1.000000"/>
		<circle id="Oval" cx="196.335205" cy="132.098145" r="0.164234" fill="#000000" fill-opacity="1.000000"/>
		<circle id="Oval" cx="197.191284" cy="132.258789" r="0.164234" fill="#000000" fill-opacity="1.000000"/>
		<circle id="Oval" cx="195.395142" cy="131.769531" r="0.164234" fill="#000000" fill-opacity="1.000000"/>
		<circle id="Oval" cx="205.815308" cy="132.328613" r="0.164234" fill="#000000" fill-opacity="1.000000"/>
		<circle id="Oval" cx="203.924927" cy="132.653809" r="0.164234" fill="#000000" fill-opacity="1.000000"/>
		<circle id="Oval" cx="201.873657" cy="132.817871" r="0.164234" fill="#000000" fill-opacity="1.000000"/>
		<circle id="Oval" cx="200.004272" cy="132.817871" r="0.164234" fill="#000000" fill-opacity="1.000000"/>
	</g>
	<g opacity="0.800000">
		<circle id="Oval" cx="208.600342" cy="132.342773" r="0.164234" fill="#000000" fill-opacity="1.000000"/>
		<circle id="Oval" cx="207.775635" cy="132.573242" r="0.164234" fill="#000000" fill-opacity="1.000000"/>
		<circle id="Oval" cx="206.751831" cy="132.898438" r="0.164234" fill="#000000" fill-opacity="1.000000"/>
		<circle id="Oval" cx="204.917236" cy="133.293213" r="0.164234" fill="#000000" fill-opacity="1.000000"/>
		<circle id="Oval" cx="202.984863" cy="133.527344" r="0.164234" fill="#000000" fill-opacity="1.000000"/>
		<circle id="Oval" cx="200.986206" cy="133.621582" r="0.164234" fill="#000000" fill-opacity="1.000000"/>
		<circle id="Oval" cx="198.110229" cy="133.226807" r="0.164234" fill="#000000" fill-opacity="1.000000"/>
		<circle id="Oval" cx="199.064209" cy="133.457520" r="0.164234" fill="#000000" fill-opacity="1.000000"/>
		<circle id="Oval" cx="196.335205" cy="132.898438" r="0.164234" fill="#000000" fill-opacity="1.000000"/>
		<circle id="Oval" cx="197.191284" cy="133.062500" r="0.164234" fill="#000000" fill-opacity="1.000000"/>
		<circle id="Oval" cx="195.395142" cy="132.573242" r="0.164234" fill="#000000" fill-opacity="1.000000"/>
		<circle id="Oval" cx="205.815308" cy="133.132324" r="0.164234" fill="#000000" fill-opacity="1.000000"/>
		<circle id="Oval" cx="203.924927" cy="133.457520" r="0.164234" fill="#000000" fill-opacity="1.000000"/>
		<circle id="Oval" cx="201.873657" cy="133.621582" r="0.164234" fill="#000000" fill-opacity="1.000000"/>
		<circle id="Oval" cx="200.004272" cy="133.621582" r="0.164234" fill="#000000" fill-opacity="1.000000"/>
	</g>
	<g opacity="0.800000">
		<circle id="Oval" cx="208.600342" cy="133.142822" r="0.164234" fill="#000000" fill-opacity="1.000000"/>
		<circle id="Oval" cx="207.775635" cy="133.373535" r="0.164234" fill="#000000" fill-opacity="1.000000"/>
		<circle id="Oval" cx="206.751831" cy="133.702148" r="0.164234" fill="#000000" fill-opacity="1.000000"/>
		<circle id="Oval" cx="204.917236" cy="134.096924" r="0.164234" fill="#000000" fill-opacity="1.000000"/>
		<circle id="Oval" cx="202.984863" cy="134.331055" r="0.164234" fill="#000000" fill-opacity="1.000000"/>
		<circle id="Oval" cx="200.986206" cy="134.421875" r="0.164234" fill="#000000" fill-opacity="1.000000"/>
		<circle id="Oval" cx="198.110229" cy="134.026855" r="0.164234" fill="#000000" fill-opacity="1.000000"/>
		<circle id="Oval" cx="199.064209" cy="134.257568" r="0.164234" fill="#000000" fill-opacity="1.000000"/>
		<circle id="Oval" cx="196.335205" cy="133.702148" r="0.164234" fill="#000000" fill-opacity="1.000000"/>
		<circle id="Oval" cx="197.191284" cy="133.862793" r="0.164234" fill="#000000" fill-opacity="1.000000"/>
		<circle id="Oval" cx="195.395142" cy="133.373535" r="0.164234" fill="#000000" fill-opacity="1.000000"/>
		<circle id="Oval" cx="205.815308" cy="133.932617" r="0.164234" fill="#000000" fill-opacity="1.000000"/>
		<circle id="Oval" cx="203.924927" cy="134.257568" r="0.164234" fill="#000000" fill-opacity="1.000000"/>
		<circle id="Oval" cx="201.873657" cy="134.421875" r="0.164234" fill="#000000" fill-opacity="1.000000"/>
		<circle id="Oval" cx="200.004272" cy="134.421875" r="0.164234" fill="#000000" fill-opacity="1.000000"/>
	</g>
	<g opacity="0.800000">
		<circle id="Oval" cx="208.600342" cy="133.946533" r="0.164234" fill="#000000" fill-opacity="1.000000"/>
		<circle id="Oval" cx="207.775635" cy="134.177246" r="0.164234" fill="#000000" fill-opacity="1.000000"/>
		<circle id="Oval" cx="206.751831" cy="134.502197" r="0.164234" fill="#000000" fill-opacity="1.000000"/>
		<circle id="Oval" cx="204.917236" cy="134.896973" r="0.164234" fill="#000000" fill-opacity="1.000000"/>
		<circle id="Oval" cx="202.984863" cy="135.131104" r="0.164234" fill="#000000" fill-opacity="1.000000"/>
		<circle id="Oval" cx="200.986206" cy="135.225586" r="0.164234" fill="#000000" fill-opacity="1.000000"/>
		<circle id="Oval" cx="198.110229" cy="134.830566" r="0.164234" fill="#000000" fill-opacity="1.000000"/>
		<circle id="Oval" cx="199.064209" cy="135.061279" r="0.164234" fill="#000000" fill-opacity="1.000000"/>
		<circle id="Oval" cx="196.335205" cy="134.502197" r="0.164234" fill="#000000" fill-opacity="1.000000"/>
		<circle id="Oval" cx="197.191284" cy="134.666504" r="0.164234" fill="#000000" fill-opacity="1.000000"/>
		<circle id="Oval" cx="195.395142" cy="134.177246" r="0.164234" fill="#000000" fill-opacity="1.000000"/>
		<circle id="Oval" cx="205.815308" cy="134.736328" r="0.164234" fill="#000000" fill-opacity="1.000000"/>
		<circle id="Oval" cx="203.924927" cy="135.061279" r="0.164234" fill="#000000" fill-opacity="1.000000"/>
		<circle id="Oval" cx="201.873657" cy="135.225586" r="0.164234" fill="#000000" fill-opacity="1.000000"/>
		<circle id="Oval" cx="200.004272" cy="135.225586" r="0.164234" fill="#000000" fill-opacity="1.000000"/>
	</g>
	<g opacity="0.800000">
		<circle id="Oval" cx="208.600342" cy="134.746826" r="0.164234" fill="#000000" fill-opacity="1.000000"/>
		<circle id="Oval" cx="207.775635" cy="134.980957" r="0.164234" fill="#000000" fill-opacity="1.000000"/>
		<circle id="Oval" cx="206.751831" cy="135.305908" r="0.164234" fill="#000000" fill-opacity="1.000000"/>
		<circle id="Oval" cx="204.917236" cy="135.700684" r="0.164234" fill="#000000" fill-opacity="1.000000"/>
		<circle id="Oval" cx="202.984863" cy="135.934814" r="0.164234" fill="#000000" fill-opacity="1.000000"/>
		<circle id="Oval" cx="200.986206" cy="136.025879" r="0.164234" fill="#000000" fill-opacity="1.000000"/>
		<circle id="Oval" cx="198.110229" cy="135.630859" r="0.164234" fill="#000000" fill-opacity="1.000000"/>
		<circle id="Oval" cx="199.064209" cy="135.864990" r="0.164234" fill="#000000" fill-opacity="1.000000"/>
		<circle id="Oval" cx="196.335205" cy="135.305908" r="0.164234" fill="#000000" fill-opacity="1.000000"/>
		<circle id="Oval" cx="197.191284" cy="135.470215" r="0.164234" fill="#000000" fill-opacity="1.000000"/>
		<circle id="Oval" cx="195.395142" cy="134.980957" r="0.164234" fill="#000000" fill-opacity="1.000000"/>
		<circle id="Oval" cx="205.815308" cy="135.536621" r="0.164234" fill="#000000" fill-opacity="1.000000"/>
		<circle id="Oval" cx="203.924927" cy="135.864990" r="0.164234" fill="#000000" fill-opacity="1.000000"/>
		<circle id="Oval" cx="201.873657" cy="136.025879" r="0.164234" fill="#000000" fill-opacity="1.000000"/>
		<circle id="Oval" cx="200.004272" cy="136.025879" r="0.164234" fill="#000000" fill-opacity="1.000000"/>
	</g>
	<g opacity="0.800000">
		<circle id="Oval" cx="208.600342" cy="135.550537" r="0.164234" fill="#000000" fill-opacity="1.000000"/>
		<circle id="Oval" cx="207.775635" cy="135.781250" r="0.164234" fill="#000000" fill-opacity="1.000000"/>
		<circle id="Oval" cx="206.751831" cy="136.106201" r="0.164234" fill="#000000" fill-opacity="1.000000"/>
		<circle id="Oval" cx="204.917236" cy="136.500977" r="0.164234" fill="#000000" fill-opacity="1.000000"/>
		<circle id="Oval" cx="202.984863" cy="136.735107" r="0.164234" fill="#000000" fill-opacity="1.000000"/>
		<circle id="Oval" cx="200.986206" cy="136.829590" r="0.164234" fill="#000000" fill-opacity="1.000000"/>
		<circle id="Oval" cx="198.110229" cy="136.434570" r="0.164234" fill="#000000" fill-opacity="1.000000"/>
		<circle id="Oval" cx="199.064209" cy="136.665283" r="0.164234" fill="#000000" fill-opacity="1.000000"/>
		<circle id="Oval" cx="196.335205" cy="136.106201" r="0.164234" fill="#000000" fill-opacity="1.000000"/>
		<circle id="Oval" cx="197.191284" cy="136.270264" r="0.164234" fill="#000000" fill-opacity="1.000000"/>
		<circle id="Oval" cx="195.395142" cy="135.781250" r="0.164234" fill="#000000" fill-opacity="1.000000"/>
		<circle id="Oval" cx="205.815308" cy="136.340332" r="0.164234" fill="#000000" fill-opacity="1.000000"/>
		<circle id="Oval" cx="203.924927" cy="136.665283" r="0.164234" fill="#000000" fill-opacity="1.000000"/>
		<circle id="Oval" cx="201.873657" cy="136.829590" r="0.164234" fill="#000000" fill-opacity="1.000000"/>
		<circle id="Oval" cx="200.004272" cy="136.829590" r="0.164234" fill="#000000" fill-opacity="1.000000"/>
	</g>
	<g opacity="0.800000">
		<circle id="Oval" cx="208.600342" cy="136.354248" r="0.164234" fill="#000000" fill-opacity="1.000000"/>
		<circle id="Oval" cx="207.775635" cy="136.584961" r="0.164234" fill="#000000" fill-opacity="1.000000"/>
		<circle id="Oval" cx="206.751831" cy="136.909668" r="0.164234" fill="#000000" fill-opacity="1.000000"/>
		<circle id="Oval" cx="204.917236" cy="137.304688" r="0.164234" fill="#000000" fill-opacity="1.000000"/>
		<circle id="Oval" cx="202.984863" cy="137.538818" r="0.164234" fill="#000000" fill-opacity="1.000000"/>
		<circle id="Oval" cx="200.986206" cy="137.629639" r="0.164234" fill="#000000" fill-opacity="1.000000"/>
		<circle id="Oval" cx="198.110229" cy="137.234863" r="0.164234" fill="#000000" fill-opacity="1.000000"/>
		<circle id="Oval" cx="199.064209" cy="137.468994" r="0.164234" fill="#000000" fill-opacity="1.000000"/>
		<circle id="Oval" cx="196.335205" cy="136.909668" r="0.164234" fill="#000000" fill-opacity="1.000000"/>
		<circle id="Oval" cx="197.191284" cy="137.073975" r="0.164234" fill="#000000" fill-opacity="1.000000"/>
		<circle id="Oval" cx="195.395142" cy="136.584961" r="0.164234" fill="#000000" fill-opacity="1.000000"/>
		<circle id="Oval" cx="205.815308" cy="137.140381" r="0.164234" fill="#000000" fill-opacity="1.000000"/>
		<circle id="Oval" cx="203.924927" cy="137.468994" r="0.164234" fill="#000000" fill-opacity="1.000000"/>
		<circle id="Oval" cx="201.873657" cy="137.629639" r="0.164234" fill="#000000" fill-opacity="1.000000"/>
		<circle id="Oval" cx="200.004272" cy="137.629639" r="0.164234" fill="#000000" fill-opacity="1.000000"/>
	</g>
	<g opacity="0.800000">
		<circle id="Oval" cx="208.600342" cy="137.154297" r="0.164234" fill="#000000" fill-opacity="1.000000"/>
		<circle id="Oval" cx="207.775635" cy="137.385010" r="0.164234" fill="#000000" fill-opacity="1.000000"/>
		<circle id="Oval" cx="206.751831" cy="137.713379" r="0.164234" fill="#000000" fill-opacity="1.000000"/>
		<circle id="Oval" cx="204.917236" cy="138.108398" r="0.164234" fill="#000000" fill-opacity="1.000000"/>
		<circle id="Oval" cx="202.984863" cy="138.342529" r="0.164234" fill="#000000" fill-opacity="1.000000"/>
		<circle id="Oval" cx="200.986206" cy="138.433350" r="0.164234" fill="#000000" fill-opacity="1.000000"/>
		<circle id="Oval" cx="198.110229" cy="138.038574" r="0.164234" fill="#000000" fill-opacity="1.000000"/>
		<circle id="Oval" cx="199.064209" cy="138.269043" r="0.164234" fill="#000000" fill-opacity="1.000000"/>
		<circle id="Oval" cx="196.335205" cy="137.713379" r="0.164234" fill="#000000" fill-opacity="1.000000"/>
		<circle id="Oval" cx="197.191284" cy="137.874268" r="0.164234" fill="#000000" fill-opacity="1.000000"/>
		<circle id="Oval" cx="195.395142" cy="137.385010" r="0.164234" fill="#000000" fill-opacity="1.000000"/>
		<circle id="Oval" cx="205.815308" cy="137.944092" r="0.164234" fill="#000000" fill-opacity="1.000000"/>
		<circle id="Oval" cx="203.924927" cy="138.269043" r="0.164234" fill="#000000" fill-opacity="1.000000"/>
		<circle id="Oval" cx="201.873657" cy="138.433350" r="0.164234" fill="#000000" fill-opacity="1.000000"/>
		<circle id="Oval" cx="200.004272" cy="138.433350" r="0.164234" fill="#000000" fill-opacity="1.000000"/>
	</g>
	<g opacity="0.800000">
		<circle id="Oval" cx="208.600342" cy="137.958008" r="0.164234" fill="#000000" fill-opacity="1.000000"/>
		<circle id="Oval" cx="207.775635" cy="138.188721" r="0.164234" fill="#000000" fill-opacity="1.000000"/>
		<circle id="Oval" cx="206.751831" cy="138.513672" r="0.164234" fill="#000000" fill-opacity="1.000000"/>
		<circle id="Oval" cx="204.917236" cy="138.908691" r="0.164234" fill="#000000" fill-opacity="1.000000"/>
		<circle id="Oval" cx="202.984863" cy="139.142578" r="0.164234" fill="#000000" fill-opacity="1.000000"/>
		<circle id="Oval" cx="200.986206" cy="139.233643" r="0.164234" fill="#000000" fill-opacity="1.000000"/>
		<circle id="Oval" cx="198.110229" cy="138.838623" r="0.164234" fill="#000000" fill-opacity="1.000000"/>
		<circle id="Oval" cx="199.064209" cy="139.072754" r="0.164234" fill="#000000" fill-opacity="1.000000"/>
		<circle id="Oval" cx="196.335205" cy="138.513672" r="0.164234" fill="#000000" fill-opacity="1.000000"/>
		<circle id="Oval" cx="197.191284" cy="138.677979" r="0.164234" fill="#000000" fill-opacity="1.000000"/>
		<circle id="Oval" cx="195.395142" cy="138.188721" r="0.164234" fill="#000000" fill-opacity="1.000000"/>
		<circle id="Oval" cx="205.815308" cy="138.744385" r="0.164234" fill="#000000" fill-opacity="1.000000"/>
		<circle id="Oval" cx="203.924927" cy="139.072754" r="0.164234" fill="#000000" fill-opacity="1.000000"/>
		<circle id="Oval" cx="201.873657" cy="139.233643" r="0.164234" fill="#000000" fill-opacity="1.000000"/>
		<circle id="Oval" cx="200.004272" cy="139.233643" r="0.164234" fill="#000000" fill-opacity="1.000000"/>
	</g>
	<g opacity="0.800000">
		<circle id="Oval" cx="208.600342" cy="138.758301" r="0.164234" fill="#000000" fill-opacity="1.000000"/>
		<circle id="Oval" cx="207.775635" cy="138.989014" r="0.164234" fill="#000000" fill-opacity="1.000000"/>
		<circle id="Oval" cx="206.751831" cy="139.317383" r="0.164234" fill="#000000" fill-opacity="1.000000"/>
		<circle id="Oval" cx="204.917236" cy="139.712402" r="0.164234" fill="#000000" fill-opacity="1.000000"/>
		<circle id="Oval" cx="202.984863" cy="139.946289" r="0.164234" fill="#000000" fill-opacity="1.000000"/>
		<circle id="Oval" cx="200.986206" cy="140.037354" r="0.164234" fill="#000000" fill-opacity="1.000000"/>
		<circle id="Oval" cx="198.110229" cy="139.642334" r="0.164234" fill="#000000" fill-opacity="1.000000"/>
		<circle id="Oval" cx="199.064209" cy="139.873047" r="0.164234" fill="#000000" fill-opacity="1.000000"/>
		<circle id="Oval" cx="196.335205" cy="139.317383" r="0.164234" fill="#000000" fill-opacity="1.000000"/>
		<circle id="Oval" cx="197.191284" cy="139.478027" r="0.164234" fill="#000000" fill-opacity="1.000000"/>
		<circle id="Oval" cx="195.395142" cy="138.989014" r="0.164234" fill="#000000" fill-opacity="1.000000"/>
		<circle id="Oval" cx="205.815308" cy="139.548096" r="0.164234" fill="#000000" fill-opacity="1.000000"/>
		<circle id="Oval" cx="203.924927" cy="139.873047" r="0.164234" fill="#000000" fill-opacity="1.000000"/>
		<circle id="Oval" cx="201.873657" cy="140.037354" r="0.164234" fill="#000000" fill-opacity="1.000000"/>
		<circle id="Oval" cx="200.004272" cy="140.037354" r="0.164234" fill="#000000" fill-opacity="1.000000"/>
	</g>
	<g opacity="0.800000">
		<circle id="Oval" cx="208.600342" cy="139.562012" r="0.164234" fill="#000000" fill-opacity="1.000000"/>
		<circle id="Oval" cx="207.775635" cy="139.792725" r="0.164234" fill="#000000" fill-opacity="1.000000"/>
		<circle id="Oval" cx="206.751831" cy="140.117676" r="0.164234" fill="#000000" fill-opacity="1.000000"/>
		<circle id="Oval" cx="204.917236" cy="140.512451" r="0.164234" fill="#000000" fill-opacity="1.000000"/>
		<circle id="Oval" cx="202.984863" cy="140.746582" r="0.164234" fill="#000000" fill-opacity="1.000000"/>
		<circle id="Oval" cx="200.986206" cy="140.840820" r="0.164234" fill="#000000" fill-opacity="1.000000"/>
		<circle id="Oval" cx="198.110229" cy="140.446045" r="0.164234" fill="#000000" fill-opacity="1.000000"/>
		<circle id="Oval" cx="199.064209" cy="140.676758" r="0.164234" fill="#000000" fill-opacity="1.000000"/>
		<circle id="Oval" cx="196.335205" cy="140.117676" r="0.164234" fill="#000000" fill-opacity="1.000000"/>
		<circle id="Oval" cx="197.191284" cy="140.281738" r="0.164234" fill="#000000" fill-opacity="1.000000"/>
		<circle id="Oval" cx="195.395142" cy="139.792725" r="0.164234" fill="#000000" fill-opacity="1.000000"/>
		<circle id="Oval" cx="205.815308" cy="140.351807" r="0.164234" fill="#000000" fill-opacity="1.000000"/>
		<circle id="Oval" cx="203.924927" cy="140.676758" r="0.164234" fill="#000000" fill-opacity="1.000000"/>
		<circle id="Oval" cx="201.873657" cy="140.840820" r="0.164234" fill="#000000" fill-opacity="1.000000"/>
		<circle id="Oval" cx="200.004272" cy="140.840820" r="0.164234" fill="#000000" fill-opacity="1.000000"/>
	</g>
	<g opacity="0.800000">
		<circle id="Oval" cx="208.600342" cy="140.362305" r="0.164234" fill="#000000" fill-opacity="1.000000"/>
		<circle id="Oval" cx="207.775635" cy="140.592773" r="0.164234" fill="#000000" fill-opacity="1.000000"/>
		<circle id="Oval" cx="206.751831" cy="140.921387" r="0.164234" fill="#000000" fill-opacity="1.000000"/>
		<circle id="Oval" cx="204.917236" cy="141.316162" r="0.164234" fill="#000000" fill-opacity="1.000000"/>
		<circle id="Oval" cx="202.984863" cy="141.550293" r="0.164234" fill="#000000" fill-opacity="1.000000"/>
		<circle id="Oval" cx="200.986206" cy="141.641113" r="0.164234" fill="#000000" fill-opacity="1.000000"/>
		<circle id="Oval" cx="198.110229" cy="141.246338" r="0.164234" fill="#000000" fill-opacity="1.000000"/>
		<circle id="Oval" cx="199.064209" cy="141.477051" r="0.164234" fill="#000000" fill-opacity="1.000000"/>
		<circle id="Oval" cx="196.335205" cy="140.921387" r="0.164234" fill="#000000" fill-opacity="1.000000"/>
		<circle id="Oval" cx="197.191284" cy="141.082031" r="0.164234" fill="#000000" fill-opacity="1.000000"/>
		<circle id="Oval" cx="195.395142" cy="140.592773" r="0.164234" fill="#000000" fill-opacity="1.000000"/>
		<circle id="Oval" cx="205.815308" cy="141.151855" r="0.164234" fill="#000000" fill-opacity="1.000000"/>
		<circle id="Oval" cx="203.924927" cy="141.477051" r="0.164234" fill="#000000" fill-opacity="1.000000"/>
		<circle id="Oval" cx="201.873657" cy="141.641113" r="0.164234" fill="#000000" fill-opacity="1.000000"/>
		<circle id="Oval" cx="200.004272" cy="141.641113" r="0.164234" fill="#000000" fill-opacity="1.000000"/>
	</g>
	<g opacity="0.800000">
		<circle id="Oval" cx="208.600342" cy="141.166016" r="0.164234" fill="#000000" fill-opacity="1.000000"/>
		<circle id="Oval" cx="207.775635" cy="141.396484" r="0.164234" fill="#000000" fill-opacity="1.000000"/>
		<circle id="Oval" cx="206.751831" cy="141.721680" r="0.164234" fill="#000000" fill-opacity="1.000000"/>
		<circle id="Oval" cx="204.917236" cy="142.116455" r="0.164234" fill="#000000" fill-opacity="1.000000"/>
		<circle id="Oval" cx="202.984863" cy="142.350586" r="0.164234" fill="#000000" fill-opacity="1.000000"/>
		<circle id="Oval" cx="200.986206" cy="142.444824" r="0.164234" fill="#000000" fill-opacity="1.000000"/>
		<circle id="Oval" cx="198.110229" cy="142.050049" r="0.164234" fill="#000000" fill-opacity="1.000000"/>
		<circle id="Oval" cx="199.064209" cy="142.280762" r="0.164234" fill="#000000" fill-opacity="1.000000"/>
		<circle id="Oval" cx="196.335205" cy="141.721680" r="0.164234" fill="#000000" fill-opacity="1.000000"/>
		<circle id="Oval" cx="197.191284" cy="141.885742" r="0.164234" fill="#000000" fill-opacity="1.000000"/>
		<circle id="Oval" cx="195.395142" cy="141.396484" r="0.164234" fill="#000000" fill-opacity="1.000000"/>
		<circle id="Oval" cx="205.815308" cy="141.955566" r="0.164234" fill="#000000" fill-opacity="1.000000"/>
		<circle id="Oval" cx="203.924927" cy="142.280762" r="0.164234" fill="#000000" fill-opacity="1.000000"/>
		<circle id="Oval" cx="201.873657" cy="142.444824" r="0.164234" fill="#000000" fill-opacity="1.000000"/>
		<circle id="Oval" cx="200.004272" cy="142.444824" r="0.164234" fill="#000000" fill-opacity="1.000000"/>
	</g>
	<g opacity="0.800000">
		<circle id="Oval" cx="208.600342" cy="141.966064" r="0.164234" fill="#000000" fill-opacity="1.000000"/>
		<circle id="Oval" cx="207.775635" cy="142.200195" r="0.164234" fill="#000000" fill-opacity="1.000000"/>
		<circle id="Oval" cx="206.751831" cy="142.525146" r="0.164234" fill="#000000" fill-opacity="1.000000"/>
		<circle id="Oval" cx="204.917236" cy="142.920166" r="0.164234" fill="#000000" fill-opacity="1.000000"/>
		<circle id="Oval" cx="202.984863" cy="143.154297" r="0.164234" fill="#000000" fill-opacity="1.000000"/>
		<circle id="Oval" cx="200.986206" cy="143.245117" r="0.164234" fill="#000000" fill-opacity="1.000000"/>
		<circle id="Oval" cx="198.110229" cy="142.850098" r="0.164234" fill="#000000" fill-opacity="1.000000"/>
		<circle id="Oval" cx="199.064209" cy="143.084473" r="0.164234" fill="#000000" fill-opacity="1.000000"/>
		<circle id="Oval" cx="196.335205" cy="142.525146" r="0.164234" fill="#000000" fill-opacity="1.000000"/>
		<circle id="Oval" cx="197.191284" cy="142.689453" r="0.164234" fill="#000000" fill-opacity="1.000000"/>
		<circle id="Oval" cx="195.395142" cy="142.200195" r="0.164234" fill="#000000" fill-opacity="1.000000"/>
		<circle id="Oval" cx="205.815308" cy="142.755859" r="0.164234" fill="#000000" fill-opacity="1.000000"/>
		<circle id="Oval" cx="203.924927" cy="143.084473" r="0.164234" fill="#000000" fill-opacity="1.000000"/>
		<circle id="Oval" cx="201.873657" cy="143.245117" r="0.164234" fill="#000000" fill-opacity="1.000000"/>
		<circle id="Oval" cx="200.004272" cy="143.245117" r="0.164234" fill="#000000" fill-opacity="1.000000"/>
	</g>
	<g opacity="0.800000">
		<circle id="Oval" cx="208.600342" cy="142.769775" r="0.164234" fill="#000000" fill-opacity="1.000000"/>
		<circle id="Oval" cx="207.775635" cy="143.000488" r="0.164234" fill="#000000" fill-opacity="1.000000"/>
		<circle id="Oval" cx="206.751831" cy="143.325439" r="0.164234" fill="#000000" fill-opacity="1.000000"/>
		<circle id="Oval" cx="204.917236" cy="143.720215" r="0.164234" fill="#000000" fill-opacity="1.000000"/>
		<circle id="Oval" cx="202.984863" cy="143.954346" r="0.164234" fill="#000000" fill-opacity="1.000000"/>
		<circle id="Oval" cx="200.986206" cy="144.048828" r="0.164234" fill="#000000" fill-opacity="1.000000"/>
		<circle id="Oval" cx="198.110229" cy="143.653809" r="0.164234" fill="#000000" fill-opacity="1.000000"/>
		<circle id="Oval" cx="199.064209" cy="143.884521" r="0.164234" fill="#000000" fill-opacity="1.000000"/>
		<circle id="Oval" cx="196.335205" cy="143.325439" r="0.164234" fill="#000000" fill-opacity="1.000000"/>
		<circle id="Oval" cx="197.191284" cy="143.489746" r="0.164234" fill="#000000" fill-opacity="1.000000"/>
		<circle id="Oval" cx="195.395142" cy="143.000488" r="0.164234" fill="#000000" fill-opacity="1.000000"/>
		<circle id="Oval" cx="205.815308" cy="143.559570" r="0.164234" fill="#000000" fill-opacity="1.000000"/>
		<circle id="Oval" cx="203.924927" cy="143.884521" r="0.164234" fill="#000000" fill-opacity="1.000000"/>
		<circle id="Oval" cx="201.873657" cy="144.048828" r="0.164234" fill="#000000" fill-opacity="1.000000"/>
		<circle id="Oval" cx="200.004272" cy="144.048828" r="0.164234" fill="#000000" fill-opacity="1.000000"/>
	</g>
	<g opacity="0.800000">
		<circle id="Oval" cx="208.600342" cy="143.570068" r="0.164234" fill="#000000" fill-opacity="1.000000"/>
		<circle id="Oval" cx="207.775635" cy="143.804199" r="0.164234" fill="#000000" fill-opacity="1.000000"/>
		<circle id="Oval" cx="206.751831" cy="144.129150" r="0.164234" fill="#000000" fill-opacity="1.000000"/>
		<circle id="Oval" cx="204.917236" cy="144.523926" r="0.164234" fill="#000000" fill-opacity="1.000000"/>
		<circle id="Oval" cx="202.984863" cy="144.758057" r="0.164234" fill="#000000" fill-opacity="1.000000"/>
		<circle id="Oval" cx="200.986206" cy="144.848877" r="0.164234" fill="#000000" fill-opacity="1.000000"/>
		<circle id="Oval" cx="198.110229" cy="144.454102" r="0.164234" fill="#000000" fill-opacity="1.000000"/>
		<circle id="Oval" cx="199.064209" cy="144.688232" r="0.164234" fill="#000000" fill-opacity="1.000000"/>
		<circle id="Oval" cx="196.335205" cy="144.129150" r="0.164234" fill="#000000" fill-opacity="1.000000"/>
		<circle id="Oval" cx="197.191284" cy="144.293457" r="0.164234" fill="#000000" fill-opacity="1.000000"/>
		<circle id="Oval" cx="195.395142" cy="143.804199" r="0.164234" fill="#000000" fill-opacity="1.000000"/>
		<circle id="Oval" cx="205.815308" cy="144.359863" r="0.164234" fill="#000000" fill-opacity="1.000000"/>
		<circle id="Oval" cx="203.924927" cy="144.688232" r="0.164234" fill="#000000" fill-opacity="1.000000"/>
		<circle id="Oval" cx="201.873657" cy="144.848877" r="0.164234" fill="#000000" fill-opacity="1.000000"/>
		<circle id="Oval" cx="200.004272" cy="144.848877" r="0.164234" fill="#000000" fill-opacity="1.000000"/>
	</g>
	<g opacity="0.800000">
		<circle id="Oval" cx="208.600342" cy="144.373779" r="0.164234" fill="#000000" fill-opacity="1.000000"/>
		<circle id="Oval" cx="207.775635" cy="144.604492" r="0.164234" fill="#000000" fill-opacity="1.000000"/>
		<circle id="Oval" cx="206.751831" cy="144.932861" r="0.164234" fill="#000000" fill-opacity="1.000000"/>
		<circle id="Oval" cx="204.917236" cy="145.327637" r="0.164234" fill="#000000" fill-opacity="1.000000"/>
		<circle id="Oval" cx="202.984863" cy="145.561768" r="0.164234" fill="#000000" fill-opacity="1.000000"/>
		<circle id="Oval" cx="200.986206" cy="145.652588" r="0.164234" fill="#000000" fill-opacity="1.000000"/>
		<circle id="Oval" cx="198.110229" cy="145.257812" r="0.164234" fill="#000000" fill-opacity="1.000000"/>
		<circle id="Oval" cx="199.064209" cy="145.488525" r="0.164234" fill="#000000" fill-opacity="1.000000"/>
		<circle id="Oval" cx="196.335205" cy="144.932861" r="0.164234" fill="#000000" fill-opacity="1.000000"/>
		<circle id="Oval" cx="197.191284" cy="145.093506" r="0.164234" fill="#000000" fill-opacity="1.000000"/>
		<circle id="Oval" cx="195.395142" cy="144.604492" r="0.164234" fill="#000000" fill-opacity="1.000000"/>
		<circle id="Oval" cx="205.815308" cy="145.163574" r="0.164234" fill="#000000" fill-opacity="1.000000"/>
		<circle id="Oval" cx="203.924927" cy="145.488525" r="0.164234" fill="#000000" fill-opacity="1.000000"/>
		<circle id="Oval" cx="201.873657" cy="145.652588" r="0.164234" fill="#000000" fill-opacity="1.000000"/>
		<circle id="Oval" cx="200.004272" cy="145.652588" r="0.164234" fill="#000000" fill-opacity="1.000000"/>
	</g>
	<g opacity="0.800000">
		<circle id="Oval" cx="208.600342" cy="145.177490" r="0.164234" fill="#000000" fill-opacity="1.000000"/>
		<circle id="Oval" cx="207.775635" cy="145.407959" r="0.164234" fill="#000000" fill-opacity="1.000000"/>
		<circle id="Oval" cx="206.751831" cy="145.732910" r="0.164234" fill="#000000" fill-opacity="1.000000"/>
		<circle id="Oval" cx="204.917236" cy="146.127930" r="0.164234" fill="#000000" fill-opacity="1.000000"/>
		<circle id="Oval" cx="202.984863" cy="146.362061" r="0.164234" fill="#000000" fill-opacity="1.000000"/>
		<circle id="Oval" cx="200.986206" cy="146.452881" r="0.164234" fill="#000000" fill-opacity="1.000000"/>
		<circle id="Oval" cx="198.110229" cy="146.058105" r="0.164234" fill="#000000" fill-opacity="1.000000"/>
		<circle id="Oval" cx="199.064209" cy="146.291992" r="0.164234" fill="#000000" fill-opacity="1.000000"/>
		<circle id="Oval" cx="196.335205" cy="145.732910" r="0.164234" fill="#000000" fill-opacity="1.000000"/>
		<circle id="Oval" cx="197.191284" cy="145.897217" r="0.164234" fill="#000000" fill-opacity="1.000000"/>
		<circle id="Oval" cx="195.395142" cy="145.407959" r="0.164234" fill="#000000" fill-opacity="1.000000"/>
		<circle id="Oval" cx="205.815308" cy="145.963623" r="0.164234" fill="#000000" fill-opacity="1.000000"/>
		<circle id="Oval" cx="203.924927" cy="146.291992" r="0.164234" fill="#000000" fill-opacity="1.000000"/>
		<circle id="Oval" cx="201.873657" cy="146.452881" r="0.164234" fill="#000000" fill-opacity="1.000000"/>
		<circle id="Oval" cx="200.004272" cy="146.452881" r="0.164234" fill="#000000" fill-opacity="1.000000"/>
	</g>
	<g opacity="0.100000">
		<circle id="Oval" cx="287.579590" cy="32.453369" r="7.558273" fill="#FB8F66" fill-opacity="1.000000"/>
	</g>
	<g opacity="0.100000">
		<circle id="Oval" cx="321.125244" cy="50.973145" r="5.943885" fill="#FB8F66" fill-opacity="1.000000"/>
	</g>
	<g opacity="0.100000">
		<circle id="Oval" cx="337.751343" cy="22.330078" r="2.096608" fill="#FB8F66" fill-opacity="1.000000"/>
	</g>
	<path id="Path" d="M43.38 240.94C43.38 240.94 45.87 244.2 42.23 249.12C38.58 254.04 35.59 258.2 36.79 261.26C36.79 261.26 42.29 252.12 46.77 252C51.24 251.87 48.32 246.44 43.38 240.94Z" fill="#FB8F66" fill-opacity="1.000000" fill-rule="evenodd"/>
	<g opacity="0.100000">
		<path id="Path" d="M43.38 240.94C43.59 241.25 43.77 241.6 43.89 241.96C48.25 247.09 50.58 251.88 46.38 252C42.47 252.11 37.78 259.1 36.66 260.86C36.69 261 36.74 261.13 36.79 261.26C36.79 261.26 42.29 252.12 46.77 252C51.24 251.87 48.32 246.44 43.38 240.94Z" fill="#000000" fill-opacity="1.000000" fill-rule="evenodd"/>
	</g>
	<path id="Path" d="M48.01 245.09C48.01 246.24 47.88 247.17 47.72 247.17C47.57 247.17 47.44 246.24 47.44 245.09C47.44 243.95 47.6 244.49 47.75 244.49C47.91 244.49 48.01 243.94 48.01 245.09Z" fill="#FFD037" fill-opacity="1.000000" fill-rule="evenodd"/>
	<path id="Path" d="M49.6 246.46C48.59 247.01 47.72 247.34 47.64 247.2C47.56 247.06 48.32 246.51 49.33 245.96C50.34 245.41 49.93 245.81 50.03 245.96C50.12 246.11 50.61 245.91 49.6 246.46Z" fill="#FFD037" fill-opacity="1.000000" fill-rule="evenodd"/>
	<path id="Path" d="M30.21 240.94C30.21 240.94 27.71 244.2 31.36 249.12C35 254.04 37.99 258.2 36.79 261.26C36.79 261.26 31.29 252.12 26.82 252C22.35 251.87 25.28 246.44 30.21 240.94Z" fill="#FB8F66" fill-opacity="1.000000" fill-rule="evenodd"/>
	<g opacity="0.100000">
		<path id="Path" d="M30.21 240.94C29.99 241.25 29.82 241.6 29.7 241.96C25.33 247.09 23 251.88 27.2 252C31.11 252.11 35.8 259.1 36.93 260.86C36.89 261 36.84 261.13 36.79 261.26C36.79 261.26 31.29 252.12 26.82 252C22.35 251.87 25.28 246.44 30.21 240.94Z" fill="#000000" fill-opacity="1.000000" fill-rule="evenodd"/>
	</g>
	<path id="Path" d="M25.57 245.09C25.57 246.24 25.7 247.17 25.86 247.17C26.02 247.17 26.15 246.24 26.15 245.09C26.15 243.95 25.98 244.49 25.83 244.49C25.67 244.49 25.57 243.94 25.57 245.09Z" fill="#FFD037" fill-opacity="1.000000" fill-rule="evenodd"/>
	<path id="Path" d="M23.98 246.46C24.99 247.01 25.87 247.34 25.94 247.2C26.02 247.06 25.26 246.51 24.25 245.96C23.24 245.41 23.65 245.81 23.56 245.96C23.46 246.11 22.97 245.91 23.98 246.46Z" fill="#FFD037" fill-opacity="1.000000" fill-rule="evenodd"/>
	<g opacity="0.100000">
		<ellipse id="Oval" rx="26.067831" ry="4.001028" transform="matrix(0.997503 -0.070627 0.070627 0.997503 36.7714 282.221)" fill="#FB8F66" fill-opacity="1.000000"/>
	</g>
	<path id="Path" d="M50.21 256.87L50.08 257.89L49.91 259.33L49.84 259.93L49.66 261.37L49.59 261.97L49.41 263.4L47.42 279.76C47.24 281.22 44.85 282.35 41.97 282.35L31.61 282.35C28.73 282.35 26.35 281.22 26.17 279.76L24.17 263.4L24 261.97L23.92 261.37L23.74 259.93L23.67 259.33L23.5 257.89L23.37 256.87C23.27 256.04 24.57 255.35 26.19 255.35L47.39 255.35C49.02 255.35 50.31 256.04 50.21 256.87Z" fill="#65617D" fill-opacity="1.000000" fill-rule="evenodd"/>
	<path id="Path" d="M50.08 257.89L49.91 259.33L23.67 259.33L23.5 257.89L50.08 257.89L50.08 257.89Z" fill="#9D9CB5" fill-opacity="1.000000" fill-rule="evenodd"/>
	<path id="Path" d="M49.83 259.93L49.66 261.37L23.92 261.37L23.74 259.93L49.83 259.93L49.83 259.93Z" fill="#9D9CB5" fill-opacity="1.000000" fill-rule="evenodd"/>
	<path id="Path" d="M49.58 261.97L49.41 263.4L24.17 263.4L24 261.97L49.58 261.97L49.58 261.97Z" fill="#9D9CB5" fill-opacity="1.000000" fill-rule="evenodd"/>
	<g opacity="0.100000">
		<path id="Path" d="M244.99 140.97L254.54 141.46L238.8 146.41L230.75 145.95L244.99 140.97L244.99 140.97Z" fill="#000000" fill-opacity="1.000000" fill-rule="evenodd"/>
	</g>
	<path id="Path" d="M244.99 140.56L254.54 141.05L238.8 146L230.74 145.53L244.99 140.56L244.99 140.56Z" fill="#FFFFFF" fill-opacity="1.000000" fill-rule="evenodd"/>
	<path id="Path" d="M243.86 141.64C244.24 141.48 244.64 141.77 245.05 141.84C245.28 141.88 245.51 141.84 245.74 141.88C246.21 141.93 246.68 142.23 247.14 142.08L243.86 141.64Z" fill="#D3DAE1" fill-opacity="1.000000" fill-rule="evenodd"/>
	<path id="Path" d="M243.38 141.93C243.75 141.77 244.15 142.07 244.56 142.14C244.79 142.18 245.02 142.14 245.26 142.17C245.72 142.23 246.19 142.52 246.64 142.37L243.38 141.93Z" fill="#D3DAE1" fill-opacity="1.000000" fill-rule="evenodd"/>
	<path id="Path" d="M242.25 142.52C242.63 142.36 243.03 142.65 243.44 142.72C243.67 142.77 243.9 142.72 244.14 142.76C244.61 142.81 245.07 143.11 245.53 142.95L242.25 142.52Z" fill="#D3DAE1" fill-opacity="1.000000" fill-rule="evenodd"/>
	<path id="Path" d="M266.39 139.1C266.39 139.1 265.2 144.67 270.51 145.32L270.84 144.71C270.84 144.71 266.71 140.83 266.39 139.1Z" fill="#FB8F66" fill-opacity="1.000000" fill-rule="evenodd"/>
	<path id="Path" d="M272.53 144.67L271.29 144.93L271.17 144.95C271.17 144.95 267.87 142.28 267.92 136.3C268.36 137.18 268.88 138.02 269.49 138.79C270.8 140.52 272.28 142.83 272.53 144.67Z" fill="#FB8F66" fill-opacity="1.000000" fill-rule="evenodd"/>
	<path id="Path" d="M272.95 145.24C272.75 145.37 272.51 145.4 272.28 145.32C269.11 144.58 270.19 134.24 270.19 134.24C270.36 134.33 270.55 135.64 271.28 137.34C272.56 140.32 273.97 144.49 272.95 145.24Z" fill="#FB8F66" fill-opacity="1.000000" fill-rule="evenodd"/>
	<path id="Path" d="M279.99 139.1C279.99 139.1 280.2 144.67 274.88 145.32L274.56 144.71C274.56 144.71 279.64 140.83 279.99 139.1Z" fill="#FB8F66" fill-opacity="1.000000" fill-rule="evenodd"/>
	<path id="Path" d="M278.46 136.3C278.5 142.28 274.22 144.95 274.22 144.95L274.09 144.93L272.86 144.67C273.1 142.83 274.61 140.52 275.9 138.79C276.64 137.85 277.5 137.01 278.46 136.3Z" fill="#FB8F66" fill-opacity="1.000000" fill-rule="evenodd"/>
	<path id="Path" d="M274.08 144.7C273.89 144.93 273.65 145.11 273.38 145.24L273.38 145.24C273.29 145.28 273.21 145.3 273.12 145.32C272.34 145.51 272.07 144.94 272.11 143.99C272.18 142.28 273.25 139.33 274.21 137.12C274.66 136.03 275.34 135.06 276.2 134.24C276.2 134.24 276.15 142.31 274.08 144.7Z" fill="#FB8F66" fill-opacity="1.000000" fill-rule="evenodd"/>
	<path id="Path" d="M273.19 130.62C273.19 130.62 269.65 143.19 272.7 145.08C275.75 146.96 273.97 131.73 273.19 130.62Z" fill="#FB8F66" fill-opacity="1.000000" fill-rule="evenodd"/>
	<g opacity="0.100000">
		<path id="Path" d="M266.39 139.1C266.39 139.1 265.2 144.67 270.51 145.32L270.84 144.71C270.84 144.71 266.71 140.83 266.39 139.1Z" fill="#000000" fill-opacity="1.000000" fill-rule="evenodd"/>
	</g>
	<g opacity="0.100000">
		<path id="Path" d="M272.53 144.67L271.29 144.93L271.17 144.95C271.17 144.95 267.87 142.28 267.92 136.3C268.36 137.18 268.88 138.02 269.49 138.79C270.8 140.52 272.28 142.83 272.53 144.67Z" fill="#000000" fill-opacity="1.000000" fill-rule="evenodd"/>
	</g>
	<g opacity="0.100000">
		<path id="Path" d="M272.95 145.24C272.75 145.37 272.51 145.4 272.28 145.32C269.11 144.58 270.19 134.24 270.19 134.24C270.36 134.33 270.55 135.64 271.28 137.34C272.56 140.32 273.97 144.49 272.95 145.24Z" fill="#000000" fill-opacity="1.000000" fill-rule="evenodd"/>
	</g>
	<g opacity="0.100000">
		<path id="Path" d="M279.99 139.1C279.99 139.1 280.2 144.67 274.88 145.32L274.56 144.71C274.56 144.71 279.64 140.83 279.99 139.1Z" fill="#000000" fill-opacity="1.000000" fill-rule="evenodd"/>
	</g>
	<g opacity="0.100000">
		<path id="Path" d="M278.46 136.3C278.5 142.28 274.22 144.95 274.22 144.95L274.09 144.93L272.86 144.67C273.1 142.83 274.61 140.52 275.9 138.79C276.64 137.85 277.5 137.01 278.46 136.3Z" fill="#000000" fill-opacity="1.000000" fill-rule="evenodd"/>
	</g>
	<g opacity="0.100000">
		<path id="Path" d="M274.08 144.7C273.89 144.93 273.65 145.11 273.38 145.24L273.38 145.24C273.29 145.28 273.21 145.3 273.12 145.32C272.34 145.51 272.07 144.94 272.11 143.99C272.18 142.28 273.25 139.33 274.21 137.12C274.66 136.03 275.34 135.06 276.2 134.24C276.2 134.24 276.15 142.31 274.08 144.7Z" fill="#000000" fill-opacity="1.000000" fill-rule="evenodd"/>
	</g>
	<g opacity="0.100000">
		<path id="Path" d="M273.19 130.62C273.19 130.62 269.65 143.19 272.7 145.08C275.75 146.96 273.97 131.73 273.19 130.62Z" fill="#000000" fill-opacity="1.000000" fill-rule="evenodd"/>
	</g>
	<path id="Path" d="M266.39 139.1C266.39 139.1 265.69 144.67 271 145.32L271.33 144.71C271.33 144.71 266.71 140.83 266.39 139.1Z" fill="#FB8F66" fill-opacity="1.000000" fill-rule="evenodd"/>
	<path id="Path" d="M273.02 144.67L271.79 144.93L271.67 144.95C271.67 144.95 267.87 142.28 267.92 136.3C267.92 136.3 268.89 137.35 269.98 138.79C271.29 140.52 272.78 142.83 273.02 144.67Z" fill="#FB8F66" fill-opacity="1.000000" fill-rule="evenodd"/>
	<g opacity="0.100000">
		<path id="Path" d="M273.02 144.67L271.79 144.93C270.62 143.9 270.15 141.21 269.98 138.79C271.29 140.52 272.78 142.83 273.02 144.67Z" fill="#000000" fill-opacity="1.000000" fill-rule="evenodd"/>
	</g>
	<path id="Path" d="M273.44 145.24C273.25 145.37 273 145.4 272.78 145.32C269.6 144.58 270.18 134.24 270.18 134.24C270.36 134.33 271.05 135.64 271.77 137.34C273.06 140.32 274.46 144.49 273.44 145.24Z" fill="#FB8F66" fill-opacity="1.000000" fill-rule="evenodd"/>
	<path id="Path" d="M279.99 139.1C279.99 139.1 280.69 144.67 275.38 145.32L275.05 144.71C275.05 144.71 279.64 140.83 279.99 139.1Z" fill="#FB8F66" fill-opacity="1.000000" fill-rule="evenodd"/>
	<path id="Path" d="M278.46 136.3C278.5 142.28 274.71 144.95 274.71 144.95L274.59 144.93L273.35 144.67C273.6 142.83 275.1 140.52 276.39 138.79C277.49 137.34 278.46 136.3 278.46 136.3Z" fill="#FB8F66" fill-opacity="1.000000" fill-rule="evenodd"/>
	<g opacity="0.100000">
		<path id="Path" d="M276.39 138.79C276.23 141.05 275.82 143.53 274.82 144.7C274.75 144.78 274.67 144.86 274.59 144.93L273.35 144.67C273.6 142.83 275.1 140.52 276.39 138.79Z" fill="#000000" fill-opacity="1.000000" fill-rule="evenodd"/>
	</g>
	<path id="Path" d="M274.57 144.7C274.38 144.93 274.14 145.11 273.87 145.24L273.87 145.24C273.79 145.28 273.7 145.3 273.61 145.32C272.83 145.51 272.56 144.94 272.6 143.99C272.68 142.28 273.75 139.33 274.7 137.12C275.4 135.53 276.03 134.33 276.2 134.24C276.2 134.24 276.64 142.31 274.57 144.7Z" fill="#FB8F66" fill-opacity="1.000000" fill-rule="evenodd"/>
	<g opacity="0.100000">
		<path id="Path" d="M273.44 145.24C273.26 145.24 273.09 145.18 272.94 145.08C271.45 144.15 271.42 140.66 271.77 137.34C273.06 140.32 274.46 144.49 273.44 145.24Z" fill="#000000" fill-opacity="1.000000" fill-rule="evenodd"/>
	</g>
	<g opacity="0.100000">
		<path id="Path" d="M274.57 144.7C274.4 145.07 274.17 145.26 273.87 145.24L273.87 145.24C273.72 145.22 273.57 145.16 273.45 145.08C273.06 144.81 272.76 144.43 272.6 143.99C272.68 142.28 273.75 139.33 274.7 137.12C275.04 140.19 275.16 143.44 274.57 144.7Z" fill="#000000" fill-opacity="1.000000" fill-rule="evenodd"/>
	</g>
	<path id="Path" d="M273.19 130.62C273.19 130.62 270.14 143.19 273.19 145.08C276.24 146.96 273.97 131.73 273.19 130.62Z" fill="#FB8F66" fill-opacity="1.000000" fill-rule="evenodd"/>
	<path id="Path" d="M277.97 145.7L277.76 146.81L276.98 150.89L269.6 150.89L268.83 146.81L268.61 145.7L277.97 145.7L277.97 145.7Z" fill="#65617D" fill-opacity="1.000000" fill-rule="evenodd"/>
	<g opacity="0.100000">
		<path id="Path" d="M277.97 145.7L277.76 146.81L268.83 146.81L268.61 145.7L277.97 145.7L277.97 145.7Z" fill="#000000" fill-opacity="1.000000" fill-rule="evenodd"/>
	</g>
	<rect id="Rectangle" x="266.847656" y="144.464600" width="12.687975" height="2.100103" fill="#65617D" fill-opacity="1.000000"/>
	<path id="Path" d="M300.98 162.23C300.98 162.23 326.06 177.95 320.57 203.25C320.12 205.32 319.74 207.39 319.48 209.48C318.48 217.68 312.46 241.2 276.52 252.03L276.52 254.48L291.77 250.23L302.12 244.52L310.02 237.43L319.68 225.65L324.16 216.04L325.8 203.39L326.74 188.93L324.43 176.56L318.98 168.49L312.34 163.33L300.98 162.23Z" fill="#D9D6DF" fill-opacity="1.000000" fill-rule="evenodd"/>
	<path id="Shape" d="M69.8923 229.727C67.5231 242.306 69.3611 255.393 75.5461 266.613C93.5804 299.327 131.906 289.7 143.214 285.989C145.905 285.105 148.63 284.34 151.391 283.714L275.943 255.487C318.809 248.034 327.66 213.321 327.66 213.321C336.148 186.547 330.329 170.948 322.649 162.108C316.485 155.095 307.435 151.313 298.115 151.855L283.341 152.638L152.013 166.965C90.6207 167.622 74.2218 206.699 69.8923 229.727ZM154.676 181.015C102.439 182.787 86.1969 211.504 82.0561 231.303C79.631 242.89 81.476 255.029 87.6715 265.117C104.525 292.555 139.22 284.385 149.654 281.164C152.209 280.374 154.794 279.689 157.412 279.13L272.456 254.495C312.096 247.985 320.283 217.682 320.283 217.682C326.975 197.74 324.05 184.912 318.641 176.773C312.977 168.258 303.115 163.502 292.898 164.015L279.298 164.714L161.846 180.404C159.466 180.722 157.073 180.932 154.676 181.015Z" clip-rule="evenodd" fill="#E1DEE5" fill-opacity="1.000000" fill-rule="evenodd"/>
</svg>
